<svg width="522" height="589" viewBox="0 0 522 589" fill="none" xmlns="http://www.w3.org/2000/svg">
<rect x="35.0439" y="247.529" width="468.836" height="104.885" rx="4" fill="#FDE74C"/>
<circle cx="101.509" cy="202.215" r="71.7779" transform="rotate(-135 101.509 202.215)" fill="#F0896E"/>
<circle cx="455.607" cy="304.856" r="2.65573" fill="#58B4AE"/>
<circle cx="455.607" cy="134.889" r="2.65573" fill="#58B4AE"/>
<circle cx="285.64" cy="304.856" r="2.65573" fill="#58B4AE"/>
<circle cx="285.64" cy="134.889" r="2.65573" fill="#58B4AE"/>
<circle cx="455.607" cy="219.872" r="2.65573" fill="#58B4AE"/>
<circle cx="455.607" cy="49.9057" r="2.65573" fill="#58B4AE"/>
<circle cx="285.64" cy="219.872" r="2.65573" fill="#58B4AE"/>
<circle cx="285.64" cy="49.9057" r="2.65573" fill="#58B4AE"/>
<circle cx="370.624" cy="304.856" r="2.65573" fill="#58B4AE"/>
<circle cx="370.624" cy="134.889" r="2.65573" fill="#58B4AE"/>
<circle cx="200.657" cy="304.856" r="2.65573" fill="#58B4AE"/>
<circle cx="200.657" cy="134.889" r="2.65573" fill="#58B4AE"/>
<circle cx="370.624" cy="219.872" r="2.65573" fill="#58B4AE"/>
<circle cx="370.624" cy="49.9057" r="2.65573" fill="#58B4AE"/>
<circle cx="200.657" cy="219.872" r="2.65573" fill="#58B4AE"/>
<circle cx="200.657" cy="49.9058" r="2.65573" fill="#58B4AE"/>
<circle cx="455.607" cy="347.347" r="2.65573" fill="#58B4AE"/>
<circle cx="455.607" cy="177.381" r="2.65573" fill="#58B4AE"/>
<circle cx="285.64" cy="347.347" r="2.65573" fill="#58B4AE"/>
<circle cx="285.64" cy="177.381" r="2.65573" fill="#58B4AE"/>
<circle cx="455.607" cy="262.364" r="2.65573" fill="#58B4AE"/>
<circle cx="455.607" cy="92.3973" r="2.65573" fill="#58B4AE"/>
<circle cx="285.64" cy="262.364" r="2.65573" fill="#58B4AE"/>
<circle cx="285.64" cy="92.3973" r="2.65573" fill="#58B4AE"/>
<circle cx="370.624" cy="347.347" r="2.65573" fill="#58B4AE"/>
<circle cx="370.624" cy="177.381" r="2.65573" fill="#58B4AE"/>
<circle cx="200.657" cy="347.347" r="2.65573" fill="#58B4AE"/>
<circle cx="200.657" cy="177.381" r="2.65573" fill="#58B4AE"/>
<circle cx="370.624" cy="262.364" r="2.65573" fill="#58B4AE"/>
<circle cx="370.624" cy="92.3973" r="2.65573" fill="#58B4AE"/>
<circle cx="200.657" cy="262.364" r="2.65573" fill="#58B4AE"/>
<circle cx="200.657" cy="92.3973" r="2.65573" fill="#58B4AE"/>
<circle cx="498.098" cy="304.856" r="2.65573" fill="#58B4AE"/>
<circle cx="498.098" cy="134.889" r="2.65573" fill="#58B4AE"/>
<circle cx="328.132" cy="304.856" r="2.65573" fill="#58B4AE"/>
<circle cx="328.132" cy="134.889" r="2.65573" fill="#58B4AE"/>
<circle cx="498.098" cy="219.872" r="2.65573" fill="#58B4AE"/>
<circle cx="498.098" cy="49.9057" r="2.65573" fill="#58B4AE"/>
<circle cx="328.132" cy="219.872" r="2.65573" fill="#58B4AE"/>
<circle cx="328.132" cy="49.9057" r="2.65573" fill="#58B4AE"/>
<circle cx="413.115" cy="304.856" r="2.65573" fill="#58B4AE"/>
<circle cx="413.115" cy="134.889" r="2.65573" fill="#58B4AE"/>
<circle cx="243.149" cy="304.856" r="2.65573" fill="#58B4AE"/>
<circle cx="243.149" cy="134.889" r="2.65573" fill="#58B4AE"/>
<circle cx="413.115" cy="219.872" r="2.65573" fill="#58B4AE"/>
<circle cx="413.115" cy="49.9057" r="2.65573" fill="#58B4AE"/>
<circle cx="243.149" cy="219.872" r="2.65573" fill="#58B4AE"/>
<circle cx="243.149" cy="49.9057" r="2.65573" fill="#58B4AE"/>
<circle cx="498.098" cy="347.347" r="2.65573" fill="#58B4AE"/>
<circle cx="498.098" cy="177.381" r="2.65573" fill="#58B4AE"/>
<circle cx="328.132" cy="347.347" r="2.65573" fill="#58B4AE"/>
<circle cx="328.132" cy="177.381" r="2.65573" fill="#58B4AE"/>
<circle cx="498.098" cy="262.364" r="2.65573" fill="#58B4AE"/>
<circle cx="498.098" cy="92.3973" r="2.65573" fill="#58B4AE"/>
<circle cx="328.132" cy="262.364" r="2.65573" fill="#58B4AE"/>
<circle cx="328.132" cy="92.3973" r="2.65573" fill="#58B4AE"/>
<circle cx="413.115" cy="347.347" r="2.65573" fill="#58B4AE"/>
<circle cx="413.115" cy="177.381" r="2.65573" fill="#58B4AE"/>
<circle cx="243.149" cy="347.347" r="2.65573" fill="#58B4AE"/>
<circle cx="243.149" cy="177.381" r="2.65573" fill="#58B4AE"/>
<circle cx="413.115" cy="262.364" r="2.65573" fill="#58B4AE"/>
<circle cx="413.115" cy="92.3973" r="2.65573" fill="#58B4AE"/>
<circle cx="243.149" cy="262.364" r="2.65573" fill="#58B4AE"/>
<circle cx="243.149" cy="92.3973" r="2.65573" fill="#58B4AE"/>
<circle cx="455.607" cy="326.101" r="2.65573" fill="#58B4AE"/>
<circle cx="455.607" cy="156.135" r="2.65573" fill="#58B4AE"/>
<circle cx="285.64" cy="326.101" r="2.65573" fill="#58B4AE"/>
<circle cx="285.64" cy="156.135" r="2.65573" fill="#58B4AE"/>
<circle cx="455.607" cy="241.118" r="2.65573" fill="#58B4AE"/>
<circle cx="455.607" cy="71.1516" r="2.65573" fill="#58B4AE"/>
<circle cx="285.64" cy="241.118" r="2.65573" fill="#58B4AE"/>
<circle cx="285.64" cy="71.1516" r="2.65573" fill="#58B4AE"/>
<circle cx="370.624" cy="326.101" r="2.65573" fill="#58B4AE"/>
<circle cx="370.624" cy="156.135" r="2.65573" fill="#58B4AE"/>
<circle cx="200.657" cy="326.101" r="2.65573" fill="#58B4AE"/>
<circle cx="200.657" cy="156.135" r="2.65573" fill="#58B4AE"/>
<circle cx="370.624" cy="241.118" r="2.65573" fill="#58B4AE"/>
<circle cx="370.624" cy="71.1516" r="2.65573" fill="#58B4AE"/>
<circle cx="200.657" cy="241.118" r="2.65573" fill="#58B4AE"/>
<circle cx="200.657" cy="71.1516" r="2.65573" fill="#58B4AE"/>
<circle cx="455.607" cy="368.593" r="2.65573" fill="#58B4AE"/>
<circle cx="455.607" cy="198.626" r="2.65573" fill="#58B4AE"/>
<circle cx="285.64" cy="368.593" r="2.65573" fill="#58B4AE"/>
<circle cx="285.64" cy="198.626" r="2.65573" fill="#58B4AE"/>
<circle cx="455.607" cy="283.61" r="2.65573" fill="#58B4AE"/>
<circle cx="455.607" cy="113.643" r="2.65573" fill="#58B4AE"/>
<circle cx="285.64" cy="283.61" r="2.65573" fill="#58B4AE"/>
<circle cx="285.64" cy="113.643" r="2.65573" fill="#58B4AE"/>
<circle cx="370.624" cy="368.593" r="2.65573" fill="#58B4AE"/>
<circle cx="370.624" cy="198.626" r="2.65573" fill="#58B4AE"/>
<circle cx="200.657" cy="368.593" r="2.65573" fill="#58B4AE"/>
<circle cx="200.657" cy="198.626" r="2.65573" fill="#58B4AE"/>
<circle cx="370.624" cy="283.61" r="2.65573" fill="#58B4AE"/>
<circle cx="370.624" cy="113.643" r="2.65573" fill="#58B4AE"/>
<circle cx="200.657" cy="283.61" r="2.65573" fill="#58B4AE"/>
<circle cx="200.657" cy="113.643" r="2.65573" fill="#58B4AE"/>
<circle cx="498.098" cy="326.101" r="2.65573" fill="#58B4AE"/>
<circle cx="498.098" cy="156.135" r="2.65573" fill="#58B4AE"/>
<circle cx="328.132" cy="326.101" r="2.65573" fill="#58B4AE"/>
<circle cx="328.132" cy="156.135" r="2.65573" fill="#58B4AE"/>
<circle cx="498.098" cy="241.118" r="2.65573" fill="#58B4AE"/>
<circle cx="498.098" cy="71.1516" r="2.65573" fill="#58B4AE"/>
<circle cx="328.132" cy="241.118" r="2.65573" fill="#58B4AE"/>
<circle cx="328.132" cy="71.1516" r="2.65573" fill="#58B4AE"/>
<circle cx="413.115" cy="326.101" r="2.65573" fill="#58B4AE"/>
<circle cx="413.115" cy="156.135" r="2.65573" fill="#58B4AE"/>
<circle cx="243.149" cy="326.101" r="2.65573" fill="#58B4AE"/>
<circle cx="243.149" cy="156.135" r="2.65573" fill="#58B4AE"/>
<circle cx="413.115" cy="241.118" r="2.65573" fill="#58B4AE"/>
<circle cx="413.115" cy="71.1516" r="2.65573" fill="#58B4AE"/>
<circle cx="243.149" cy="241.118" r="2.65573" fill="#58B4AE"/>
<circle cx="243.149" cy="71.1516" r="2.65573" fill="#58B4AE"/>
<circle cx="498.098" cy="368.593" r="2.65573" fill="#58B4AE"/>
<circle cx="498.098" cy="198.626" r="2.65573" fill="#58B4AE"/>
<circle cx="328.132" cy="368.593" r="2.65573" fill="#58B4AE"/>
<circle cx="328.132" cy="198.626" r="2.65573" fill="#58B4AE"/>
<circle cx="498.098" cy="283.61" r="2.65573" fill="#58B4AE"/>
<circle cx="498.098" cy="113.643" r="2.65573" fill="#58B4AE"/>
<circle cx="328.132" cy="283.61" r="2.65573" fill="#58B4AE"/>
<circle cx="328.132" cy="113.643" r="2.65573" fill="#58B4AE"/>
<circle cx="413.115" cy="368.593" r="2.65573" fill="#58B4AE"/>
<circle cx="413.115" cy="198.626" r="2.65573" fill="#58B4AE"/>
<circle cx="243.149" cy="368.593" r="2.65573" fill="#58B4AE"/>
<circle cx="243.149" cy="198.626" r="2.65573" fill="#58B4AE"/>
<circle cx="413.115" cy="283.61" r="2.65573" fill="#58B4AE"/>
<circle cx="413.115" cy="113.643" r="2.65573" fill="#58B4AE"/>
<circle cx="243.149" cy="283.61" r="2.65573" fill="#58B4AE"/>
<circle cx="243.149" cy="113.643" r="2.65573" fill="#58B4AE"/>
<circle cx="476.853" cy="304.856" r="2.65573" fill="#58B4AE"/>
<circle cx="476.853" cy="134.889" r="2.65573" fill="#58B4AE"/>
<circle cx="306.886" cy="304.856" r="2.65573" fill="#58B4AE"/>
<circle cx="306.886" cy="134.889" r="2.65573" fill="#58B4AE"/>
<circle cx="476.853" cy="219.872" r="2.65573" fill="#58B4AE"/>
<circle cx="476.853" cy="49.9057" r="2.65573" fill="#58B4AE"/>
<circle cx="306.886" cy="219.872" r="2.65573" fill="#58B4AE"/>
<circle cx="306.886" cy="49.9057" r="2.65573" fill="#58B4AE"/>
<circle cx="391.869" cy="304.856" r="2.65573" fill="#58B4AE"/>
<circle cx="391.869" cy="134.889" r="2.65573" fill="#58B4AE"/>
<circle cx="221.903" cy="304.856" r="2.65573" fill="#58B4AE"/>
<circle cx="221.903" cy="134.889" r="2.65573" fill="#58B4AE"/>
<circle cx="391.869" cy="219.872" r="2.65573" fill="#58B4AE"/>
<circle cx="391.869" cy="49.9057" r="2.65573" fill="#58B4AE"/>
<circle cx="221.903" cy="219.872" r="2.65573" fill="#58B4AE"/>
<circle cx="221.903" cy="49.9057" r="2.65573" fill="#58B4AE"/>
<circle cx="476.853" cy="347.347" r="2.65573" fill="#58B4AE"/>
<circle cx="476.853" cy="177.381" r="2.65573" fill="#58B4AE"/>
<circle cx="306.886" cy="347.347" r="2.65573" fill="#58B4AE"/>
<circle cx="306.886" cy="177.381" r="2.65573" fill="#58B4AE"/>
<circle cx="476.853" cy="262.364" r="2.65573" fill="#58B4AE"/>
<circle cx="476.853" cy="92.3973" r="2.65573" fill="#58B4AE"/>
<circle cx="306.886" cy="262.364" r="2.65573" fill="#58B4AE"/>
<circle cx="306.886" cy="92.3973" r="2.65573" fill="#58B4AE"/>
<circle cx="391.869" cy="347.347" r="2.65573" fill="#58B4AE"/>
<circle cx="391.869" cy="177.381" r="2.65573" fill="#58B4AE"/>
<circle cx="221.903" cy="347.347" r="2.65573" fill="#58B4AE"/>
<circle cx="221.903" cy="177.381" r="2.65573" fill="#58B4AE"/>
<circle cx="391.869" cy="262.364" r="2.65573" fill="#58B4AE"/>
<circle cx="391.869" cy="92.3973" r="2.65573" fill="#58B4AE"/>
<circle cx="221.903" cy="262.364" r="2.65573" fill="#58B4AE"/>
<circle cx="221.903" cy="92.3973" r="2.65573" fill="#58B4AE"/>
<circle cx="519.344" cy="304.856" r="2.65573" fill="#58B4AE"/>
<circle cx="519.344" cy="134.889" r="2.65573" fill="#58B4AE"/>
<circle cx="349.378" cy="304.856" r="2.65573" fill="#58B4AE"/>
<circle cx="349.378" cy="134.889" r="2.65573" fill="#58B4AE"/>
<circle cx="519.344" cy="219.872" r="2.65573" fill="#58B4AE"/>
<circle cx="519.344" cy="49.9057" r="2.65573" fill="#58B4AE"/>
<circle cx="349.378" cy="219.872" r="2.65573" fill="#58B4AE"/>
<circle cx="349.378" cy="49.9057" r="2.65573" fill="#58B4AE"/>
<circle cx="434.361" cy="304.856" r="2.65573" fill="#58B4AE"/>
<circle cx="434.361" cy="134.889" r="2.65573" fill="#58B4AE"/>
<circle cx="264.394" cy="304.856" r="2.65573" fill="#58B4AE"/>
<circle cx="264.394" cy="134.889" r="2.65573" fill="#58B4AE"/>
<circle cx="434.361" cy="219.872" r="2.65573" fill="#58B4AE"/>
<circle cx="434.361" cy="49.9057" r="2.65573" fill="#58B4AE"/>
<circle cx="264.394" cy="219.872" r="2.65573" fill="#58B4AE"/>
<circle cx="264.394" cy="49.9057" r="2.65573" fill="#58B4AE"/>
<circle cx="519.344" cy="347.347" r="2.65573" fill="#58B4AE"/>
<circle cx="519.344" cy="177.381" r="2.65573" fill="#58B4AE"/>
<circle cx="349.378" cy="347.347" r="2.65573" fill="#58B4AE"/>
<circle cx="349.378" cy="177.381" r="2.65573" fill="#58B4AE"/>
<circle cx="519.344" cy="262.364" r="2.65573" fill="#58B4AE"/>
<circle cx="519.344" cy="92.3973" r="2.65573" fill="#58B4AE"/>
<circle cx="349.378" cy="262.364" r="2.65573" fill="#58B4AE"/>
<circle cx="349.378" cy="92.3973" r="2.65573" fill="#58B4AE"/>
<circle cx="434.361" cy="347.347" r="2.65573" fill="#58B4AE"/>
<circle cx="434.361" cy="177.381" r="2.65573" fill="#58B4AE"/>
<circle cx="264.394" cy="347.347" r="2.65573" fill="#58B4AE"/>
<circle cx="264.394" cy="177.381" r="2.65573" fill="#58B4AE"/>
<circle cx="434.361" cy="262.364" r="2.65573" fill="#58B4AE"/>
<circle cx="434.361" cy="92.3973" r="2.65573" fill="#58B4AE"/>
<circle cx="264.394" cy="262.364" r="2.65573" fill="#58B4AE"/>
<circle cx="264.394" cy="92.3973" r="2.65573" fill="#58B4AE"/>
<circle cx="476.853" cy="326.101" r="2.65573" fill="#58B4AE"/>
<circle cx="476.853" cy="156.135" r="2.65573" fill="#58B4AE"/>
<circle cx="306.886" cy="326.101" r="2.65573" fill="#58B4AE"/>
<circle cx="306.886" cy="156.135" r="2.65573" fill="#58B4AE"/>
<circle cx="476.853" cy="241.118" r="2.65573" fill="#58B4AE"/>
<circle cx="476.853" cy="71.1516" r="2.65573" fill="#58B4AE"/>
<circle cx="306.886" cy="241.118" r="2.65573" fill="#58B4AE"/>
<circle cx="306.886" cy="71.1516" r="2.65573" fill="#58B4AE"/>
<circle cx="391.869" cy="326.101" r="2.65573" fill="#58B4AE"/>
<circle cx="391.869" cy="156.135" r="2.65573" fill="#58B4AE"/>
<circle cx="221.903" cy="326.101" r="2.65573" fill="#58B4AE"/>
<circle cx="221.903" cy="156.135" r="2.65573" fill="#58B4AE"/>
<circle cx="391.869" cy="241.118" r="2.65573" fill="#58B4AE"/>
<circle cx="391.869" cy="71.1516" r="2.65573" fill="#58B4AE"/>
<circle cx="221.903" cy="241.118" r="2.65573" fill="#58B4AE"/>
<circle cx="221.903" cy="71.1516" r="2.65573" fill="#58B4AE"/>
<circle cx="476.853" cy="368.593" r="2.65573" fill="#58B4AE"/>
<circle cx="476.853" cy="198.626" r="2.65573" fill="#58B4AE"/>
<circle cx="306.886" cy="368.593" r="2.65573" fill="#58B4AE"/>
<circle cx="306.886" cy="198.626" r="2.65573" fill="#58B4AE"/>
<circle cx="476.853" cy="283.61" r="2.65573" fill="#58B4AE"/>
<circle cx="476.853" cy="113.643" r="2.65573" fill="#58B4AE"/>
<circle cx="306.886" cy="283.61" r="2.65573" fill="#58B4AE"/>
<circle cx="306.886" cy="113.643" r="2.65573" fill="#58B4AE"/>
<circle cx="391.869" cy="368.593" r="2.65573" fill="#58B4AE"/>
<circle cx="391.869" cy="198.626" r="2.65573" fill="#58B4AE"/>
<circle cx="221.903" cy="368.593" r="2.65573" fill="#58B4AE"/>
<circle cx="221.903" cy="198.626" r="2.65573" fill="#58B4AE"/>
<circle cx="391.869" cy="283.61" r="2.65573" fill="#58B4AE"/>
<circle cx="391.869" cy="113.643" r="2.65573" fill="#58B4AE"/>
<circle cx="221.903" cy="283.61" r="2.65573" fill="#58B4AE"/>
<circle cx="221.903" cy="113.643" r="2.65573" fill="#58B4AE"/>
<circle cx="519.344" cy="326.101" r="2.65573" fill="#58B4AE"/>
<circle cx="519.344" cy="156.135" r="2.65573" fill="#58B4AE"/>
<circle cx="349.378" cy="326.101" r="2.65573" fill="#58B4AE"/>
<circle cx="349.378" cy="156.135" r="2.65573" fill="#58B4AE"/>
<circle cx="519.344" cy="241.118" r="2.65573" fill="#58B4AE"/>
<circle cx="519.344" cy="71.1516" r="2.65573" fill="#58B4AE"/>
<circle cx="349.378" cy="241.118" r="2.65573" fill="#58B4AE"/>
<circle cx="349.378" cy="71.1516" r="2.65573" fill="#58B4AE"/>
<circle cx="434.361" cy="326.101" r="2.65573" fill="#58B4AE"/>
<circle cx="434.361" cy="156.135" r="2.65573" fill="#58B4AE"/>
<circle cx="264.394" cy="326.101" r="2.65573" fill="#58B4AE"/>
<circle cx="264.394" cy="156.135" r="2.65573" fill="#58B4AE"/>
<circle cx="434.361" cy="241.118" r="2.65573" fill="#58B4AE"/>
<circle cx="434.361" cy="71.1516" r="2.65573" fill="#58B4AE"/>
<circle cx="264.394" cy="241.118" r="2.65573" fill="#58B4AE"/>
<circle cx="264.394" cy="71.1516" r="2.65573" fill="#58B4AE"/>
<circle cx="519.344" cy="368.593" r="2.65573" fill="#58B4AE"/>
<circle cx="519.344" cy="198.626" r="2.65573" fill="#58B4AE"/>
<circle cx="349.378" cy="368.593" r="2.65573" fill="#58B4AE"/>
<circle cx="349.378" cy="198.626" r="2.65573" fill="#58B4AE"/>
<circle cx="519.344" cy="283.61" r="2.65573" fill="#58B4AE"/>
<circle cx="519.344" cy="113.643" r="2.65573" fill="#58B4AE"/>
<circle cx="349.378" cy="283.61" r="2.65573" fill="#58B4AE"/>
<circle cx="349.378" cy="113.643" r="2.65573" fill="#58B4AE"/>
<circle cx="434.361" cy="368.593" r="2.65573" fill="#58B4AE"/>
<circle cx="434.361" cy="198.626" r="2.65573" fill="#58B4AE"/>
<circle cx="264.394" cy="368.593" r="2.65573" fill="#58B4AE"/>
<circle cx="264.394" cy="198.626" r="2.65573" fill="#58B4AE"/>
<circle cx="434.361" cy="283.61" r="2.65573" fill="#58B4AE"/>
<circle cx="434.361" cy="113.643" r="2.65573" fill="#58B4AE"/>
<circle cx="264.394" cy="283.61" r="2.65573" fill="#58B4AE"/>
<circle cx="264.394" cy="113.643" r="2.65573" fill="#58B4AE"/>
<path fill-rule="evenodd" clip-rule="evenodd" d="M117.144 287.092C116.982 287.898 116.736 288.771 116.48 289.554C117.754 290.778 119.557 292.418 120.85 293.603C119.57 285.713 123.463 278.43 125.846 270.966C124.947 269.815 121.818 268.637 121.918 267.362C122.16 262.636 122.516 257.361 123.03 251.444C124.77 232.967 126.501 213.698 122.395 195.164C122.114 193.15 121.688 191.032 118.982 190.985C110.99 222.746 117.466 254.724 117.29 286.686L117.523 286.894L117.144 287.092ZM86.7266 543.721C85.04 543.129 82.9448 542.393 82.6526 541.201C82.1721 537.938 82.5047 534.731 82.8568 531.337C83.4135 525.514 83.3581 520.988 84.9319 514.718C86.6162 508.895 88.0518 504.345 86.408 498.324C86.2762 496.531 87.6802 494.708 88.6076 493.032C89.9206 490.585 90.5868 488.038 91.6297 485.528C89.5809 485.171 87.4535 484.681 85.4865 484.073L85.1563 485.26C85.0838 485.521 84.8838 485.653 84.5622 485.653C84.3633 485.653 83.8543 485.558 83.78 485.133C84.0887 480.548 84.5357 475.986 85.0053 471.328C89.8808 426.459 97.2636 389.471 109.662 352.581C112.639 343.942 115.681 334.948 115.703 325.561C114.01 325.199 112.124 324.991 110.399 325.229C98.1047 322.385 100.535 296.418 101.024 288.647C100.157 288.387 99.1866 288.019 98.4672 287.526L98.1762 287.668C85.9683 257.417 90.9816 207.402 93.774 173.778C95.6063 161.692 93.0292 139.86 103.762 133.887C112.428 130.823 121.056 129.101 130.111 127.08C131.788 126.119 133.858 125.571 135.729 124.949L134.762 123.592C133.495 121.808 133.663 118.31 135.322 117.081C136.341 117.137 137.773 118.159 138.747 118.639C140.148 115.747 141.445 112.721 142.375 109.246L142.71 109.365C143.689 99.535 156.456 97.8193 163.654 101.104C171.512 105.411 167.419 115.154 170.992 122.187L172.287 120.463C174.286 120.426 178.516 123.044 179.534 124.026C180.263 124.366 179.736 126.649 179.842 127.568C190.383 129.951 204.812 130.605 208.163 142.418C213.737 164.632 212.953 187.404 219.278 209.539C225.9 227.481 235.625 249.435 235.707 265.866C235.896 268.946 236.311 286.363 233.758 285.663L232.073 287.342C234.368 291 232.546 296.475 231.666 300.807C229.5 309.998 225.266 319.901 216.223 315.497C206.496 369.119 182.05 423.213 190.389 478.521C190.489 478.845 190.287 479.2 189.939 479.058L189.529 478.869C188.468 479.196 187.122 479.311 186.015 479.559C186.957 483.085 187.463 486.567 187.952 490.468C188.545 490.821 188.268 491.756 188.299 492.321C197.148 491.898 202.111 501.149 208.457 506.238C212.648 509.97 217.42 513.524 222.642 516.801C226.958 519.249 230.599 522.052 229.943 526.676C230.005 526.668 231.337 526.463 231.402 526.457C233.41 533.126 226.818 534.505 220.03 535.309C203.441 536.974 189.261 533.294 170.055 526.321C167.7 526.599 165.864 523.103 165.551 520.732C165.241 519.143 166.122 517.527 165.449 515.817C163.133 510.904 161.928 497.898 165.193 492.063C166.339 490.741 167.809 489.52 167.618 487.237C167.565 484.95 167.349 482.666 167.543 480.419C163.619 480.041 159.734 479.196 156.31 477.827C155.704 478.06 155.015 477.773 154.973 477.015C154.316 466.56 153.53 455.136 153.36 444.433C152.571 421.139 157.906 398.409 161.989 375.817C162.273 368.57 163.613 361.568 164.035 354.317C164.489 347.441 164.57 340.709 164.965 333.842L162.608 333.332C143.046 383.688 127.726 434.085 117.003 483.399C117.246 483.607 117.935 483.84 117.906 484.26C117.898 484.485 117.903 484.499 117.749 484.522C115.159 485.042 112.595 485.423 110.028 485.719C110.751 491.873 106.89 498.985 110.308 504.749C111.215 506.138 111.254 506.428 110.698 507.384C115.677 516.636 118.762 524.334 120.762 532.605L122.05 531.517C123.918 532.871 123.956 535.43 123.997 538.134C123.864 539.709 124.635 541.36 123.455 542.686C120.614 546.001 110.713 547.306 105.176 547.324C98.6085 547.326 92.5713 546.134 86.7266 543.721Z" fill="#F0F0F0"/>
<path fill-rule="evenodd" clip-rule="evenodd" d="M110.119 503.476C110.222 503.898 110.015 506.01 110.119 506.39C111.205 510.023 114.279 511.529 115.669 515.028L116.32 516.668C118.075 521.1 119.776 525.551 120.828 530.251L121.003 531.035C121.003 531.035 124.398 534.285 124.492 536.532C124.492 536.532 124.853 542.253 123.759 543.078C115.783 548.506 104.998 548.35 95.7791 546.925C92.104 546.256 88.5162 545.138 85.1096 543.608C83.8219 543.172 82.8588 542.71 82.2697 541.953C81.7694 541.31 81.5625 540.455 81.6437 539.268C81.4318 537.254 81.5873 535.33 81.7645 533.41L81.8477 532.512C81.9964 530.891 82.1248 529.268 82.0446 527.635C82.2927 521.301 84.3033 515.012 85.726 508.829L87.2543 506.39C87.2543 506.39 96.358 499.525 99.5133 499.535L99.8187 499.535C102.909 499.516 110.119 503.476 110.119 503.476ZM168.041 490.556C169.824 496.542 172.478 499.535 176.003 499.535C181.292 499.535 181.993 492.567 186.138 492.567C186.138 492.567 189.498 492.397 193.101 492.116C196.676 493.393 199.624 496.295 202.452 499.265L203.974 500.871C205.553 502.533 207.121 504.144 208.758 505.457C213.141 509.362 217.885 512.837 222.855 515.956L223.247 516.187C225.179 517.333 227.292 518.682 228.749 520.435C229.808 521.71 230.515 523.203 230.497 524.996L230.491 525.612C230.491 525.612 232.17 527.211 232.186 527.888L232.191 528.117C232.196 528.3 231.292 532.178 229.831 533.145C227.777 534.505 220.219 535.703 219.956 535.745C203.205 537.538 186.248 533.074 170.72 526.973L170.118 526.736C170.075 526.743 170.032 526.75 169.989 526.756C168.741 526.92 167.668 526.256 166.82 525.296C165.647 523.968 164.883 522.05 164.701 520.561C164.562 519.935 164.929 516.69 164.672 515.894C162.513 510.991 162.229 505.658 162.538 500.435C162.457 494.291 163.796 492.338 164.968 490.918L165.27 490.556L168.041 490.556Z" fill="#F0F0F0"/>
<path fill-rule="evenodd" clip-rule="evenodd" d="M231.94 291.687C229.987 298.242 228.195 307.949 223.223 312.775C221.619 314.05 219.663 313.493 217.825 313.176C219.086 305.55 220.01 297.858 220.814 290.169C224.728 289.366 228.501 287.979 232.006 286.064C232.955 287.651 232.362 290.066 231.94 291.687V291.687ZM216.875 297.394C210.267 357.692 179.659 415.495 188.244 477.143C177.949 478.898 167.477 479.628 157.056 478.722C158.311 459.679 154.256 438.831 157.171 419.195C159.035 400.787 163.891 382.81 165.563 364.38C166.307 354.194 167.234 343.556 164.812 333.55C164.793 333.499 164.772 333.449 164.751 333.398C166.409 331.862 167.977 330.183 169.359 328.386C170.538 326.831 167.971 324.76 166.663 326.093C168.467 321.335 170.201 316.555 171.882 311.753C145.88 364.146 129.224 425.169 115.2 483.079C105.768 485.223 96.0588 485.172 86.4475 484.914C89.0802 441.33 97.8251 398.387 109.687 356.429C112.341 346.728 115.616 336.861 115.031 326.671C118.127 327.153 122.363 325.43 124.032 322.785C125.55 323.964 127.412 322.517 128.213 321.144C130.061 317.541 129.04 313.142 127.969 309.45C131.744 310.042 136.471 306.547 133.888 302.641C129.897 299.145 125.342 296.167 121.428 292.482C121.094 285.574 123.775 279.127 126.209 272.646C138.512 281.304 150.574 290.619 163.493 298.261C165.715 298.487 167.509 296.809 169.176 295.583C173.934 292.058 178.736 288.579 183.425 284.958C183.939 285.148 184.531 285.101 184.968 284.808C187.962 288.01 191.127 290.967 194.089 294.185C195.868 295.827 197.154 298.39 199.637 299.02C200.799 299.232 201.538 298.752 202.282 297.947C206.801 293.174 211.661 288.741 216.343 284.131C216.713 284.591 217.49 284.798 218.061 284.433C218.001 288.76 217.382 293.092 216.875 297.394V297.394ZM185.684 491.843C181.365 493.088 180.681 499.825 175.594 499.168C172.301 498.475 169.645 495.625 168.801 492.423C169.054 492.263 169.225 491.983 169.198 491.579C168.982 488.294 168.764 485.008 168.548 481.723C174.271 482.039 180.017 481.589 185.702 480.806C185.496 482.366 185.414 483.939 185.369 485.529C185.45 487.549 184.857 489.988 185.684 491.843V491.843ZM166.603 490.365C166.744 490.161 166.873 489.951 166.983 489.724C167.001 489.985 167.018 490.247 167.034 490.506C166.898 490.424 166.753 490.379 166.603 490.365V490.365ZM195.481 495.682C198.417 497.679 200.705 500.524 203.205 503.008C208.523 508.294 214.421 512.999 220.734 517.047C224.022 519.087 230.969 522.173 228.218 526.963C226.167 529.98 220.788 528.573 219.941 530.266C208.24 530.746 196.795 527.551 185.673 524.281C180.027 522.438 174.12 521.364 168.646 519.023C163.4 514.433 163.384 504.343 164.106 497.872C164.392 496.342 164.818 490.074 167.058 490.863C167.062 491.489 167.126 492.333 167.804 492.51C167.815 492.559 167.823 492.609 167.836 492.658C167.707 492.616 167.536 492.71 167.598 492.865C169.286 497.883 174.85 503.531 180.282 500.015C182.695 498.319 183.752 495.038 186.629 493.974C189.643 492.858 192.944 493.957 195.481 495.682V495.682ZM230.925 526.643C231 526.68 231.079 526.697 231.159 526.699C231.389 527.287 231.276 529.684 231.232 530.097C230.523 533.704 224.835 534.303 221.819 534.848C211.222 536.516 200.445 535.35 190.107 532.691C185.061 531.443 180.043 529.999 175.145 528.26C170.793 526.938 165.41 524.741 165.951 519.23C168.374 522.498 176.133 523.466 180.025 524.817C192.257 528.527 204.667 532.518 217.576 532.646C219.532 532.562 222.234 533.107 223.702 531.636C226.812 531.192 230.04 529.472 230.925 526.643V526.643ZM108.716 491.1C107.715 494.26 106.563 497.504 106.531 500.847C100.698 497.386 93.3818 500.746 88.5474 504.536C88.8853 502.17 87.4241 499.941 87.8217 497.616C89.2985 494.108 91.2777 490.55 90.5752 486.586C97.0478 487.689 103.623 487.621 110.118 486.944C109.609 488.313 109.169 489.705 108.716 491.1V491.1ZM110.949 510.325C112.099 512.577 112.905 515.564 115.11 516.986C116.34 521.527 117.723 526.027 118.792 530.61C119.217 532.791 119.86 535.049 119.542 537.296C119.037 537.434 118.683 537.543 118.403 537.907C107.71 540.182 95.9554 540.539 86.0711 535.255C82.7554 527.852 85.358 519.185 86.4873 511.518C86.5555 509.007 88.2353 508.127 88.4355 505.734C93.7367 502.687 101.994 498.692 107.021 504.157C107.719 505.707 108.189 507.847 109.983 508.434C110.318 509.061 110.637 509.693 110.949 510.325V510.325ZM119.709 537.302C119.707 537.306 119.705 537.309 119.7 537.314C119.685 537.313 119.685 537.307 119.709 537.302V537.302ZM123.035 538.681C123.009 538.216 122.777 537.753 122.397 537.478C122.576 535.767 122.236 533.997 121.873 532.325C123.669 534.278 122.903 537.369 123.199 539.802C123.175 540.772 123.646 542.007 122.517 542.508C118.991 544.942 114.718 546.077 110.505 546.566C101.314 547.617 91.7598 545.93 83.5483 541.664C82.4334 540.151 82.8191 536.272 82.6904 534.32C83.4479 540.59 98.7613 542.324 103.97 542.378C106.867 542.396 123.004 541.798 123.035 538.681V538.681ZM113.325 322.752C112.102 322.63 110.887 322.716 109.677 322.89C102.515 318.03 101.386 298.099 100.261 289.685C105.386 290.993 110.815 290.64 115.79 288.919C115.884 289.836 116.932 290.309 117.57 289.69C120.944 295.687 125.993 300.488 131.2 304.781C131.139 304.58 131.096 304.948 131.173 304.808C130.509 306.326 128.074 305.539 126.922 306.597C126.182 307.147 126.027 308.109 126.498 308.752C125.252 312.19 127.233 316.388 125.368 319.65C124.949 320.136 124.404 320.485 124.043 321.031C121.561 319.333 119.299 322.924 116.786 323.081C116.803 323.081 116.821 323.081 116.84 323.08C116.453 323.123 115.832 323.101 115.492 323.054C114.771 322.942 114.052 322.825 113.325 322.752V322.752ZM117.942 202.608C118.468 199.18 119.082 195.773 119.879 192.399C120.84 192.566 121.054 194.763 121.176 195.411C125.289 213.993 123.508 233.117 121.746 251.873C121.319 256.903 120.967 261.941 120.691 266.983C120.336 269.302 123.006 270.088 124.431 271.358C122.449 277.732 119.028 283.898 119.432 290.686C118.901 290.198 118.374 289.706 117.851 289.21C117.984 288.783 118.097 288.356 118.193 287.926C118.844 287.588 119.05 286.654 118.493 286.161C118.707 258.367 113.483 230.336 117.942 202.608V202.608ZM169.123 150.117C170.112 148.36 172.729 150.643 171.085 151.917C169.94 152.843 168.354 151.323 169.123 150.117V150.117ZM173.963 170.553C175.018 169.182 177.136 170.769 176.214 172.187C175.135 174.422 172.977 172.214 173.963 170.553V170.553ZM177.353 188.463C179.468 188.469 178.983 192.048 176.987 191.557C175.287 191.155 175.567 188.43 177.353 188.463V188.463ZM179.086 210.042C179.576 208.386 182.08 208.823 182.063 210.526C181.999 212.826 178.59 212.131 179.086 210.042V210.042ZM183.19 230.85C183.886 228.769 186.561 229.846 186.337 231.861C186.629 233.025 184.369 235.374 183.912 233.472C183.301 232.737 183.014 231.794 183.19 230.85V230.85ZM187.393 254.849C187.398 254.842 187.403 254.835 187.409 254.828C188.896 255.527 187.609 258.711 186.174 257.542C184.782 256.694 185.745 254.003 187.393 254.849V254.849ZM189.35 274.332C191.086 276.036 188.401 278.733 186.689 276.988C184.951 275.288 187.634 272.59 189.35 274.332V274.332ZM232.342 285.881C232.364 285.931 232.389 285.981 232.416 286.028C232.371 285.99 232.326 285.952 232.281 285.914C232.3 285.903 232.321 285.893 232.342 285.881V285.881ZM233.739 246.273C230.905 235.124 226.346 224.514 221.908 213.936C217.112 199.892 215.706 185.017 213.992 170.361C213.049 162.092 212.03 153.834 210.123 145.721C208.502 130.597 193.118 128.948 181.055 126.604C181.072 125.312 181.469 123.843 180.172 123.017C178.982 121.81 172.624 118.056 171.369 119.645C170.876 118.448 170.635 117.119 170.401 115.841C170.244 115.337 170.179 113.597 169.631 113.611C169.513 117.016 168.066 122.001 170.97 124.558C169.227 127.21 167.774 130.423 165.477 132.535C165.479 132.533 165.481 132.532 165.482 132.53C165.367 132.605 165.25 132.673 165.13 132.737C165.158 132.714 164.992 132.775 164.856 132.819C164.544 132.878 164.028 132.764 163.709 132.62H163.713C155.804 128.132 148.065 123.326 140.409 118.402C141.503 116.786 142.92 108.863 141.562 107.765C140.612 110.89 139.623 114.026 138.182 116.968C136.934 116.287 134.914 115.064 133.862 116.663C132.535 118.885 132.156 122.107 133.748 124.316C126.904 127.009 119.523 127.952 112.457 130.056C109.377 130.845 106.117 131.431 103.228 132.798C94.618 137.568 94.6109 149.319 93.6667 157.974C91.2436 200.102 83.5585 243.653 95.5936 284.981C96.056 286.25 96.7395 287.469 97.2713 288.717C97.4823 289.211 98.0298 289.196 98.3907 288.927C98.7987 289.17 99.2468 289.363 99.7159 289.52C98.9278 300.263 97.8601 319.894 108.247 326.301C109.057 326.682 109.782 326.549 110.537 326.455C111.749 326.298 113.185 326.351 114.439 326.586C112.924 346.517 102.873 364.728 98.9813 384.258C90.639 417.282 85.2496 451.037 82.5376 484.98C82.4401 487.085 85.742 487.668 86.3125 485.603C87.5052 485.948 88.7153 486.235 89.9411 486.469C89.301 488.133 88.7719 489.815 88.0335 491.437C87.228 493.271 85.7616 494.959 85.3012 496.921C84.7503 500.066 86.8002 503.007 85.6636 506.154C85.4481 509.67 83.8469 512.979 83.2908 516.463C82.4225 520.779 81.7634 525.25 81.9901 529.662C81.0918 532.89 81.134 536.235 81.2593 539.505C81.3258 540.579 81.27 541.939 82.086 542.766C83.8865 544.203 86.2937 544.815 88.3943 545.715C99.7194 549.419 113.824 550.456 124.214 543.767C126.192 542.201 124.956 538.338 125.109 536.047C125.179 534.299 123.821 529.461 121.438 530.438C119.352 522.363 115.962 514.713 112.05 507.381C112.675 506.279 111.991 505.197 111.384 504.268C108.375 499.644 111.623 492.266 111.264 486.812C113.51 486.538 115.747 486.176 117.968 485.734C119.487 485.431 119.375 483.546 118.355 482.855C129.446 432.058 144.898 382.248 163.727 333.79C163.461 339.066 163.242 344.338 163.066 349.624C162.831 358.396 161.158 367.038 160.75 375.788C156.598 398.488 151.326 421.231 152.119 444.47C152.299 455.353 153.05 466.223 153.734 477.082C153.791 478.331 154.91 479.386 156.194 479.113C159.409 480.349 162.808 481.126 166.244 481.518C165.895 485.487 167.697 488.343 164.216 491.322C161.171 496.071 161.892 505.783 162.697 511.295C163.057 513.051 163.676 514.66 164.312 516.326C164.793 517.838 163.968 519.346 164.32 520.898C164.664 523.708 166.97 527.973 170.195 527.546C188.601 534.504 209.923 540.815 229.282 534.335C230.628 533.666 232.032 532.801 232.515 531.298C232.927 529.957 233.484 524.882 231.158 525.274C230.902 518.398 222.909 516.229 218.353 512.53C211.989 508.167 206.373 502.867 201.054 497.308C197.987 494.154 194.136 491.186 189.532 491.169C189.546 490.685 189.396 490.257 189.091 489.919L189.089 489.918C188.687 486.795 188.252 483.594 187.491 480.534C188.128 480.413 188.787 480.36 189.409 480.182C190.647 480.738 191.859 479.619 191.576 478.352C189.477 465.024 189.451 451.451 190.687 438.039C194.492 396.776 209.541 357.701 217.139 317.143C227.215 320.736 230.961 308.551 232.837 301.095C233.742 296.552 235.694 290.961 233.087 286.711C240.712 289.747 235.643 250.396 233.739 246.273V246.273Z" fill="#222222"/>
<path fill-rule="evenodd" clip-rule="evenodd" d="M187.051 81.4075C186.655 77.9086 187.167 70.5951 187.201 70.1508C187.418 67.3418 186.111 56.2497 183.641 57.2718C179.497 53.9678 173.978 53.2382 168.817 52.8897C158.098 52.1657 146.694 53.8278 138.416 61.0939C134.323 64.8673 130.337 70.3556 130.658 76.07C126.938 81.4867 121.695 88.9169 126.329 95.2494C127.904 97.2726 130.408 98.026 132.387 99.5582C136.367 102.792 138.864 107.432 142.882 110.646C153.527 120.281 171.602 122.293 182.061 111.335C190.148 103.399 188.841 91.5253 187.418 81.4075C186.462 74.6053 187.822 88.2336 187.051 81.4075Z" fill="#F0F0F0"/>
<path fill-rule="evenodd" clip-rule="evenodd" d="M154.497 38.0518C157.364 37.4691 160.308 37.1065 163.236 37.2156L163.462 37.2245C165.664 37.3131 168.454 37.5093 170.376 38.7995C170.486 38.6877 170.664 38.6304 170.825 38.7079C173.109 39.8058 175.621 40.5995 178.025 41.3883C180.419 42.1732 182.902 42.6913 185.41 42.9001C186.354 42.9788 187.162 44.0052 186.564 44.9259C186.422 45.1453 186.284 45.3669 186.146 45.5891C186.376 45.5648 186.607 45.5399 186.838 45.5164C187.597 45.4394 188.355 46.2554 188.31 46.9997C188.282 47.4679 188.232 47.9306 188.158 48.3877C188.447 48.3816 188.734 48.4252 189.012 48.5434C190.418 49.1415 190.32 50.8283 190.215 52.1117C190.069 53.8927 189.408 55.7792 188.18 57.1122C189.097 58.0713 189.746 59.2167 190.133 60.5771C190.414 61.5704 190.57 62.6285 190.493 63.6626L190.468 63.9722C190.373 65.0943 190.183 66.3367 189.382 67.144C188.97 67.5602 188.463 67.7119 187.98 67.6638C188.272 70.2498 188.46 72.8507 188.636 75.4423L188.719 76.6809C189.112 82.6707 189.407 88.6994 189.33 94.699C189.258 100.306 188.158 105.748 184.744 110.3C181.635 114.446 177.17 117.502 172.119 118.663C169.398 119.291 166.619 119.335 163.864 118.935C162.529 118.741 161.184 118.443 159.917 117.973C158.514 117.452 157.506 116.684 156.562 115.534C156.115 114.988 156.33 113.826 157.219 113.935C158.564 114.1 159.791 114.297 161.08 114.698L161.265 114.757C162.549 115.171 163.879 115.48 165.221 115.611C167.971 115.879 170.762 115.609 173.396 114.77C177.684 113.401 181.378 110.35 183.745 106.517C186.555 101.974 186.873 96.817 186.832 91.5931C186.789 85.8608 186.604 80.1251 186.301 74.3988L186.25 73.4445C186.09 70.4977 185.936 67.5491 185.8 64.6004C185.758 63.6755 185.694 62.7432 185.578 61.8202C184.518 61.1949 183.569 60.3329 182.95 59.2693C181.706 59.7872 180.399 60.1609 179.196 60.4587C176.409 61.149 173.515 61.3166 170.679 60.8843C169.914 61.2027 169.133 61.4826 168.341 61.7234C168.127 61.8191 167.913 61.913 167.699 62.0051C165.788 62.8283 163.851 63.5257 161.834 64.0363L161.339 64.1607C160.278 64.4241 159.125 64.6836 157.996 64.7651C157.81 64.8372 157.61 64.8983 157.392 64.9519C156.363 65.2035 155.296 65.283 154.242 65.1942C153.215 65.1073 152.473 64.0622 153.039 63.0836C153.452 62.3696 153.869 61.6574 154.29 60.947C152.826 61.5612 151.314 62.0717 149.79 62.5046C148.251 62.9412 146.69 63.3093 145.127 63.6478C144.291 63.8272 143.452 63.9863 142.618 64.1657C142.021 64.2934 141.105 64.36 140.618 64.7558C140.08 65.1905 139.928 66.2042 139.724 66.8295C139.455 67.6416 139.204 68.4573 138.974 69.2824C138.517 70.9287 138.142 72.5991 137.852 74.2861C137.562 75.975 137.367 77.6806 137.259 79.3917C137.151 81.1009 137.198 82.8212 137.024 84.5231C136.93 85.4258 135.968 85.8901 135.257 85.2593C135.174 85.1853 135.09 85.1105 135.006 85.0349L134.882 84.9208C134.274 84.3658 133.685 83.7776 133.198 83.1153C133.11 82.9933 133.026 82.8656 132.947 82.7361C132.934 82.7361 132.923 82.7324 132.91 82.7232L132.775 82.6209C131.29 81.5074 128.808 80.0556 127.36 81.9056C126.898 82.4949 126.662 83.2453 126.466 83.9693L126.122 85.265C125.899 86.1108 125.69 86.9614 125.567 87.8269C125.29 89.7655 125.429 92.0001 126.754 93.5539C127.283 94.1755 128.012 94.6194 128.825 94.736C129.279 94.7988 129.727 94.7212 130.177 94.6638C130.634 94.6065 131.075 94.699 131.532 94.6546C132.26 94.5824 132.577 95.4592 132.306 96.0105C132.159 96.3065 131.986 96.5617 131.79 96.7782C131.947 96.915 132.098 97.063 132.243 97.2184C132.673 97.3572 133.059 97.655 133.347 98.049C133.58 98.3672 133.701 98.7131 133.722 99.0775C133.747 99.1681 133.769 99.2606 133.79 99.355L134.184 99.9991C134.27 100.14 134.357 100.28 134.443 100.417C135.446 102.008 136.559 103.354 137.942 104.623C139.274 105.844 140.719 106.937 141.97 108.247L142.117 108.403C143.283 109.64 144.513 111.139 144.056 112.938C143.939 113.401 143.298 113.734 142.879 113.421C141.533 112.415 140.855 110.82 139.713 109.599C138.537 108.341 137.235 107.211 136.056 105.957C134.941 104.773 134.061 103.432 133.398 101.956C133.134 102.25 132.748 102.459 132.214 102.54C131.296 102.679 130.44 102.137 130.039 101.336C129.782 101.451 129.52 101.554 129.255 101.636C127.863 102.065 126.987 100.506 127.512 99.3531C127.793 98.7353 128.144 98.1988 128.579 97.7475C127.218 97.5588 125.833 96.8503 124.939 95.9661C122.695 93.7444 122.386 90.4055 122.891 87.4365C123.159 85.8623 123.622 84.2696 124.223 82.7916C124.327 82.5345 124.44 82.2755 124.562 82.0203C124.494 82.0184 124.425 81.9888 124.381 81.9315C123.975 81.3728 123.481 80.9159 123.179 80.2907C122.902 79.7172 122.594 79.1364 122.375 78.5389C121.925 77.3161 121.705 75.9362 121.558 74.6431C121.255 71.996 121.372 69.3656 121.775 66.7351C122.46 62.2549 124.114 57.9673 126.551 54.2052C126.419 54.1349 126.291 54.0501 126.173 53.9499L126.114 53.8985L126.019 53.8119C125.324 53.178 125.384 51.9898 126.019 51.3477L126.22 51.1451C126.474 50.8908 126.693 50.6894 127.104 50.4125C127.164 50.3716 127.226 50.3331 127.289 50.2972C127.074 49.8973 126.999 49.4297 127.149 48.9137C127.671 47.1165 130.238 47.1801 131.866 47.9639C133.666 46.3454 135.662 44.9405 137.826 43.8029C142.98 41.0947 148.807 39.206 154.497 38.0518ZM127.858 85.3888C128.82 85.0725 130.098 85.7366 130.963 86.1361C132.06 86.643 132.993 87.3921 133.896 88.1839C134.346 88.5797 134.427 89.2272 134.315 89.7803C134.304 89.8358 134.293 89.8931 134.28 89.9504C134.161 90.5405 133.507 91.0048 132.928 90.9882C131.718 90.9549 131.141 89.9023 130.456 89.0107C130.375 89.155 130.274 89.2882 130.149 89.3881L130.065 89.4547C129.781 89.6727 129.467 89.847 129.092 89.8302C128.825 89.8173 128.57 89.7488 128.335 89.6249C127.747 89.3123 127.488 88.5464 127.648 87.923C127.747 87.5309 127.975 87.2238 128.272 87.0111L128.161 86.9347C127.924 86.7683 127.708 86.593 127.539 86.3342L127.501 86.273H127.516C127.332 85.9548 127.452 85.522 127.858 85.3888Z" fill="#222222"/>
<path fill-rule="evenodd" clip-rule="evenodd" d="M170.22 105.662C169.048 105.185 168.002 104.389 167.237 103.371C166.971 103.018 166.902 102.644 166.958 102.303C167.021 101.919 167.249 101.57 167.559 101.337C167.87 101.103 168.26 100.987 168.636 101.046C168.963 101.097 169.289 101.276 169.547 101.647L169.601 101.721C170.055 102.335 170.647 102.839 171.322 103.164C171.973 103.477 172.701 103.623 173.453 103.538C174.887 103.376 175.876 102.602 176.926 101.55C177.056 101.418 177.187 101.281 177.318 101.142C177.4 101.016 177.515 100.934 177.642 100.892C177.784 100.845 177.944 100.847 178.09 100.898C178.232 100.948 178.358 101.041 178.443 101.165C178.523 101.283 178.569 101.429 178.554 101.597C178.458 102.687 177.888 103.659 177.077 104.423C176.177 105.271 174.984 105.858 173.86 106.063C172.623 106.29 171.362 106.128 170.22 105.662V105.662ZM174.444 88.852C175.761 89.6511 177.767 91.5145 176.351 93.4955C174.683 95.2423 172.283 93.2395 171.1 92.3337C170.003 91.6318 168.771 93.4372 169.788 94.2569C178.336 100.576 181.805 89.061 175.11 87.9125C174.373 87.7859 174.099 88.6048 174.444 88.852ZM159.126 81.5016C159.272 79.6986 162.022 79.2892 162.295 81.0733C162.54 82.6715 162.252 84.1396 161.531 85.5785C160.842 86.9532 159.111 86.3118 158.98 85.0601C158.804 83.3822 159.036 82.6231 159.126 81.5016ZM180.061 80.7033C180.444 80.2019 180.998 79.8597 181.661 80.0531C183.734 80.6577 183.123 83.5952 182.395 85.025C182 85.8015 180.721 85.9984 180.144 85.3147C179.202 84.1998 178.751 81.9733 179.948 80.8751C179.981 80.8184 180.017 80.7611 180.061 80.7033ZM161.502 73.6122L161.829 73.555C162.842 73.3802 164.101 73.2121 164.817 74.025C165.197 74.4561 165.328 75.2572 164.817 75.6698C163.919 76.3958 162.926 76.1145 161.849 76.1759C160.962 76.2268 160.11 76.3734 159.255 76.6173C157.38 77.1523 155.853 78.1289 154.252 79.2014C154.041 79.342 153.827 79.0737 153.927 78.8775C154.852 77.0699 156.643 75.5851 158.437 74.6799C159.395 74.1968 160.442 73.7961 161.502 73.6122ZM178.172 72.8025L178.422 72.8537C181.149 73.4228 184.691 74.5595 185.983 77.2335C186.032 77.6116 185.98 77.6927 185.938 77.7456L185.923 77.7632C185.889 77.8084 185.861 77.8707 185.697 77.9222C185.651 77.9114 185.605 77.8999 185.559 77.8877C184.967 77.7329 184.499 77.5195 184.045 77.2982L183.554 77.0564C182.983 76.7772 182.408 76.5082 181.798 76.3096C180.497 75.8858 179.159 75.5873 177.8 75.428C177.505 75.3934 177.222 75.2942 176.998 75.1241C176.786 74.9626 176.623 74.739 176.549 74.4418C176.453 74.0573 176.481 73.7661 176.688 73.4191C176.843 73.1586 177.065 72.978 177.321 72.8743C177.581 72.7686 177.877 72.7436 178.172 72.8025Z" fill="#222222"/>
<path fill-rule="evenodd" clip-rule="evenodd" d="M358.844 339.846C359.517 346.64 360.787 353.499 361.806 360.167C361.847 361.332 363.452 361.899 364.227 361.032C364.207 345.873 360.153 330.318 361.589 314.842C360.432 314.196 359.254 313.482 358.129 312.768C356.613 314.767 356.446 317.075 356.695 319.169C356.885 326.082 358.003 332.973 358.844 339.846ZM423.598 247.822L425.297 247.653C426.133 233.745 423.783 220.081 421.038 206.641L419.331 206.742C418.728 214.487 414.768 221.824 416.582 229.795C418.316 236.09 421.989 241.517 423.598 247.822ZM229.799 177.777L230.793 177.989C228.941 174.479 230.669 173.324 232.765 170.422L232.993 170.949L233.8 169.186C233.96 168.739 234.124 168.358 234.566 168.191C234.998 165.997 236.285 163.989 237.998 162.897L238.326 163.266C239.005 162.673 239.823 162.447 240.602 162.172C238.93 159.647 237.854 156.372 236.726 153.664C235.808 150.821 234.372 148.062 234.102 145.179C234.319 142.408 236.938 144.208 238.215 145.59C242.117 149.011 245.477 154.43 247.995 161.01C252.319 159.885 254.8 161.072 256.001 166.98C257.107 170.993 258.237 175.11 258.386 179.271C258.967 179.072 259.997 178.323 260.553 178.91C270.164 189.424 281.511 197.525 292.485 206.39C300.778 200.29 305.094 188.221 309.655 179.162C317.612 163.611 325.569 140.846 346.035 140.926C348.748 140.643 351.397 140.319 353.957 139.532C354.949 139.262 356.174 138.938 356.511 138.336C357.117 136.396 357.232 134.298 358.299 132.519C361.224 127.763 367.563 127.39 372.531 128.422C380.964 129.985 380.752 129.073 381.361 137.942C381.544 140.047 383.176 140.349 384.918 140.785C386.896 141.409 388.912 141.918 390.945 142.329C390.734 142.27 390.523 142.211 390.312 142.151C423.319 142.674 445.235 180.958 449.583 208.043C454.633 235.752 448.101 266.591 437.775 289.864C438.219 298.34 436.556 306.854 435.503 315.207C434.842 317.297 432.554 317.501 431.9 315.08L431.094 311.893L430.231 315.065C429.684 317.028 428.804 317.261 428.013 317.274C427.031 317.274 426.493 316.791 426.461 314.239L424.835 313.848C424.208 315.041 423.586 316.097 422.602 316.831C420.622 331.22 419.38 346.181 414.575 360.104C412.659 365.272 409.716 369.963 407.555 375.032C417.744 398.027 419.452 423.507 421.898 448.128C421.702 448.143 420.69 448.232 420.474 448.25L399.205 453.133C399.354 453.196 400.837 456.183 402.311 456.061C408.359 455.562 422.288 450.881 422.473 451.486C422.987 451.443 425.131 451.459 425.012 451.95C424.764 454.843 423.953 456.907 422.416 458.413C422.394 458.877 422.366 459.35 422.33 459.789C425.379 470.427 427.614 481.769 428.972 493.463C430.698 495.124 431.13 500.586 428.555 502.043C421.449 506.936 411.902 509.259 402.914 508.377C393.187 507.456 381.585 503.581 386.24 492.488C386.301 492.144 386.773 492.128 387.146 492.203C387.97 491.403 388.864 490.798 389.831 490.458C391.752 485.66 393.481 480.629 394.988 475.606C395.722 473.299 396.482 470.914 396.419 468.384C396.056 462.172 395.416 459.604 391.099 454.711C388.426 455.996 383.332 446.691 382.165 444.738C379.709 438.96 376.58 433.707 373.957 428.039C373.552 427.081 372.137 427.061 371.583 427.891C371.334 428.24 371.271 428.672 371.412 429.077C373.695 435.665 376.805 441.955 379.804 448.101C378.782 451.67 378.379 457.632 375.823 460.289C374.432 469.537 383.946 473.774 377.816 484.031C379.89 484.174 380.084 485.003 380.048 487.522C380.055 489.331 380.102 491.229 379.76 492.92C379.347 494.997 377.429 495.554 374.551 496.167C372.218 496.683 369.972 497.272 367.657 497.829C365.316 498.607 362.85 498.543 361.887 496.176C350.294 500.104 316.873 499.655 305.82 494.449C302.767 493.228 300.614 492.537 303.418 489.098C304.961 479.282 330.156 486.3 333.714 475.533C334.222 474.136 334.956 473.401 336.383 473.146C336.166 472.035 336.456 470.801 337.693 470.481C338.065 470.37 338.462 470.341 338.845 469.991C339.796 468.032 341.356 466.843 343.174 465.801C342.431 464.734 343.031 464.236 343.365 463.042C343.704 460.756 342.925 458.565 342.965 456.344C342.547 455.643 342.225 454.662 341.556 454.176C340.937 453.739 342.183 454.304 342.425 453.822C342.3 453.712 350.659 456.581 355.196 457.094C357.387 457.343 356.81 454.731 356.749 454.683C356.025 453.887 340.809 450.429 341.737 450.34C341.852 449.956 341.987 449.51 342.074 449.13C339.507 441.415 336.478 431.398 335.472 420.785C334.499 403.809 335.412 389.498 330.238 372.246C323.006 344.929 308.956 319.294 308.767 290.388C309.008 285.596 307.68 280.494 308.884 275.792L307.388 275.014C307.173 275.262 306.783 275.255 306.706 274.918C305.724 273.325 306.825 271.416 307.05 269.672C306.537 269.122 306.793 268.621 307.413 268.321C314.059 244.868 325.175 241.442 322.115 212.126C317.122 222.702 306.062 233.407 293.871 231.833C281.59 233.669 252.941 203.761 247.408 194.093C246.394 194.171 246.381 193.445 246.227 192.76C241.173 193.354 236.443 189.389 236.349 184.538C231.914 187.286 227.175 183.361 229.525 178.567C229.617 178.308 229.711 178.044 229.799 177.777Z" fill="#F0F0F0"/>
<path fill-rule="evenodd" clip-rule="evenodd" d="M387.994 491.428L386.799 495.312C385.726 498.797 387.008 501.73 390.289 503.57C400.482 508.974 413.931 508.59 424.91 503.031C425.839 502.551 426.739 502.041 427.605 501.5L427.863 501.337L428.08 501.199L428.189 501.128C428.637 500.832 428.925 500.564 429.122 500.187L429.149 500.132L429.163 500.104L429.173 500.074C429.221 499.932 429.265 499.789 429.305 499.645L429.336 499.531L429.366 499.416C429.566 498.615 429.631 497.891 429.677 496.475L429.697 495.803L429.752 494.147L428.764 495.478C428.36 496.022 427.81 496.487 426.907 497.094L426.511 497.356L425.738 497.863L425.716 497.878C423.767 499.181 421.59 500.274 419.188 501.183C410.494 504.409 400.592 504.007 392.887 499.89L392.66 499.767L392.053 499.403L391.864 499.289C390.694 498.572 389.997 498.037 389.456 497.37L389.415 497.319L389.374 497.266L389.211 497.056L388.945 497.066C388.227 497.093 387.785 496.448 387.809 495.538L387.811 495.487L387.994 491.428ZM378.079 483.402L377.331 483.877C369.017 489.165 361.432 492.497 353.698 493.855C349.282 494.587 344.615 494.788 339.273 494.563L338.651 494.535L338.137 494.51C334.933 494.347 331.977 494.078 326.538 493.503L324.5 493.285L321.955 492.955L320.872 492.811C316.067 492.167 313.009 491.672 309.829 490.983L309.487 490.908L309.477 490.901C309.391 490.838 309.296 490.781 309.16 490.703L309.041 490.637C308.719 490.458 308.599 490.368 308.538 490.256L308.53 490.241L308.376 489.929L307.904 489.962L307.896 489.957C307.798 489.904 307.699 489.851 307.599 489.8L307.446 489.723L307.292 489.647L307.228 489.616L307.044 489.583L306.847 489.545C306.478 489.471 306.124 489.385 305.6 489.245L305.182 489.132L305.029 489.09L304.879 489.141C303.658 489.555 303.335 490.709 304.044 491.597L304.075 491.634L304.097 491.66L304.1 491.685C304.143 491.976 304.344 492.191 304.648 492.385L304.693 492.412L304.758 492.451L304.812 492.482L304.832 492.508C304.877 492.565 304.928 492.619 304.985 492.668L305.029 492.703L305.076 492.738L305.096 492.751L305.512 493.02L305.65 493.106C305.959 493.298 306.191 493.418 306.44 493.504L306.496 493.523L306.499 493.526C307.52 494.516 309.091 495.054 311.45 495.502L311.696 495.549L311.82 495.571L312.193 495.638C324.385 497.816 336.897 498.414 349.325 497.423C351.257 497.269 353.178 497.076 355.086 496.847L355.721 496.769L356.476 496.674L357.3 496.574L357.515 496.547L357.728 496.519C359.616 496.259 360.724 495.89 361.716 495.011L361.77 494.962L361.844 494.894C362.248 494.51 363.024 494.775 363.035 495.274L363.034 495.303L363.033 495.335C362.98 496.083 363.44 496.555 364.18 496.69C364.68 496.781 365.319 496.732 366.091 496.577C366.391 496.518 366.704 496.443 367.034 496.355L367.268 496.291L367.589 496.198C367.635 496.185 367.682 496.171 367.73 496.157L368.434 495.945L369.3 495.708C369.631 495.616 369.995 495.514 370.456 495.384L372.926 494.688L373.523 494.522C374.046 494.378 374.488 494.26 374.954 494.139L375.177 494.082L375.719 493.977L375.912 493.937L376.086 493.9C377.918 493.492 378.23 492.99 378.268 490.694L378.27 490.489L378.368 489.611L378.427 489.103C378.495 488.538 378.558 488.061 378.628 487.605L378.669 487.342L378.683 487.256L378.738 486.931C378.742 486.907 378.824 486.534 378.855 486.374C378.899 486.151 378.933 485.945 378.956 485.746C379.01 485.288 379.004 484.916 378.904 484.616C378.782 484.248 378.514 484.012 378.165 483.97L378.124 483.966L378.109 483.965L378.079 483.402Z" fill="white"/>
<path fill-rule="evenodd" clip-rule="evenodd" d="M349.653 139.601L342.925 140.335L342.524 140.38C339.785 140.694 337.874 141.039 336.032 141.628C333.71 142.37 331.74 143.464 330.047 145.04C321.604 152.839 312.446 168.179 302.499 191.103L302.219 191.749L302.144 191.887L302.035 192.083C300.888 194.13 298.91 197.008 296.702 199.908L296.486 200.19L296.169 200.603L295.967 200.863C295.062 202.025 294.2 203.086 293.489 203.911L293.333 204.09L293.125 204.327L292.991 204.478C292.86 204.624 292.738 204.756 292.628 204.874L292.573 204.931L292.467 205.041L292.451 205.034L292.273 205.176L292.246 204.946L291.603 204.638C286.186 202.05 280.903 198.644 275.471 194.35L275.208 194.141C270.701 190.558 266.288 186.549 260.793 181.171L259.247 179.655L258.498 181.385C255.669 187.928 251.843 192.146 246.935 192.906L246.786 192.928L243.863 193.337L246.24 195.284L246.511 195.507C249.235 197.757 251.497 199.845 255.667 203.889L256.517 204.715L258.387 206.536C259.985 208.089 261.048 209.112 262.084 210.086L262.338 210.323L263.14 211.07L263.636 211.512C268.325 215.679 271.739 218.535 275.252 221.119L275.638 221.402L275.896 221.589C280.528 224.942 284.986 227.521 289.562 229.384L289.823 229.489L289.958 229.538L290.089 229.583C290.741 229.805 291.341 229.943 292.367 230.13L292.471 230.149L293.336 230.301C293.539 230.338 293.706 230.37 293.864 230.401L293.968 230.422L294.197 230.47L294.486 230.472C299.345 230.487 303.803 228.979 308.171 226.103L308.395 225.954C311.492 223.884 314.259 221.393 318.053 217.462L318.468 217.03L318.882 216.597L321.004 214.357L321.037 214.529C322.11 220.15 322.768 226.684 322.443 229.847L322.433 229.942L322.419 230.06L322.399 230.291C322.086 233.689 321.203 237.105 319.77 240.726C318.641 243.577 317.241 246.424 315.261 250.011L315.152 250.207L314.826 250.795L314.811 250.822C311.557 256.996 309.144 263.544 307.662 270.261L307.594 270.571L307.533 270.856L307.6 271.139C308.087 273.207 309.545 274.832 311.81 276.311L311.914 276.378L312.121 276.51C315.019 278.299 318.158 279.41 323.002 280.62C339.08 284.743 354.426 286.126 368.958 284.372C376.213 283.431 383.7 282.01 391.945 280.068L392.372 279.967L393.587 279.677C399.278 278.307 404.653 276.88 412.625 274.651L414.219 274.205L417.003 273.421L417.417 273.296L418.549 272.962L418.959 272.839L419.111 272.792L419.376 272.71L419.653 272.621C420.604 272.313 421.373 272.017 422.089 271.667L422.408 271.508L422.57 271.33C422.58 271.319 422.596 271.306 422.617 271.292L422.634 271.281L423.215 270.936L423.312 269.584C423.351 269.05 423.391 268.52 423.439 267.911L423.486 267.323L423.924 261.953C423.961 261.498 423.994 261.075 424.025 260.67L424.095 259.728L424.153 258.909L424.138 258.598C423.761 251.577 421.867 244.505 418.646 237.61L418.526 237.355L418.429 237.17C415.868 232.253 414.875 228.171 415.063 223.885L415.073 223.677C415.242 220.352 415.951 217.374 417.934 211.004L418.06 210.601L418.261 209.961L418.271 209.926C418.945 207.556 419.377 205.384 419.542 203.321L419.558 203.112L419.63 203.364C423.274 216.267 425.177 229.309 425.162 242.026L425.161 242.411L425.158 242.925L425.145 243.613C425.068 247.323 424.874 250.928 424.487 256.359L424.458 256.765L424.317 258.706L424.359 259.3L424.376 259.548L424.392 259.799L424.406 260.042C424.514 262.042 424.411 263.371 423.976 264.595L423.88 264.855L423.859 265.3C423.832 265.841 423.796 266.354 423.736 267.069L423.718 267.289L423.525 269.458L423.488 269.893C423.327 271.829 423.272 273.192 423.329 274.581L423.334 274.683L423.347 274.942L423.387 275.232C423.86 278.47 424.951 280.713 427.206 282.817L427.272 282.879L427.386 282.994C429.663 285.274 432.178 287.08 434.929 288.36L435.101 288.44L435.27 288.516L436.565 289.094L437.024 287.755C443.974 267.462 447.938 250.499 448.931 234.256C450.099 215.14 446.988 197.641 438.88 181.231L438.633 180.734L438.371 180.19C429.495 161.924 415.343 148.316 398.341 143.52L397.825 143.377L397.296 143.237L393.109 142.152L396.011 145.354C397.688 147.204 396.989 150.281 394.655 153.736L394.584 153.841L394.46 154.02C390.351 160.099 383.653 164.339 375.284 166.548C367.798 168.525 359.327 168.746 351.716 167.3L351.486 167.256L351.232 167.211C343.891 165.88 338.505 161.294 337.836 154.983L337.817 154.792L337.786 154.411C337.454 149.83 340.035 145.163 344.143 142.751L344.268 142.679L349.653 139.601Z" fill="#F0F0F0"/>
<path fill-rule="evenodd" clip-rule="evenodd" d="M264.871 210.385L265.347 210.809C273.132 217.728 281.39 224.635 291.136 228.545C292.457 229.025 293.833 229.155 295.189 229.442C306.525 229.554 314.223 220.781 321.401 213.217C320.8 200.272 321.297 186.906 326.415 174.81L326.537 174.499C327.789 171.334 329.32 168.198 331.768 165.779C331.829 165.721 331.911 165.809 331.86 165.871C329.771 168.428 328.554 171.552 327.681 174.703L327.637 174.863C324.658 185.534 324.14 196.732 324.532 207.754L324.544 208.088C324.811 215.535 325.455 223.022 324.558 230.454C323.903 238.125 320.506 245.061 316.807 251.686C313.582 257.804 311.171 264.345 309.71 271.105C310.18 273.1 311.883 274.563 313.652 275.673C316.85 277.647 320.555 278.727 324.174 279.631C338.983 283.429 354.406 285.192 369.642 283.353C385.896 281.245 401.76 276.882 417.501 272.44C419.12 271.944 420.917 271.495 422.463 270.723C422.567 270.609 422.689 270.513 422.822 270.434C423.089 266.661 423.444 262.921 423.707 259.157C423.351 251.867 421.324 244.777 418.217 238.193C412.541 227.398 414.416 220.834 417.876 209.836C418.671 207.037 419.239 204.109 419.168 201.224C418.806 199.407 418.456 197.588 418.133 195.764C417.998 195.414 417.852 195.068 417.688 194.724C417.657 194.658 417.745 194.607 417.786 194.667C417.859 194.77 417.928 194.875 417.997 194.982C417.757 193.59 417.534 192.197 417.339 190.8C417.313 190.616 417.551 190.544 417.62 190.723C423.84 207.435 427.451 225.349 427.303 243.208C427.214 248.467 426.852 253.723 426.465 258.97L426.501 259.475C426.638 261.46 426.71 263.484 426.015 265.375C425.867 268.62 425.316 271.826 425.487 275.081C425.888 278.052 426.786 280.154 429.02 282.209C431.232 284.454 433.765 286.311 436.65 287.599C448.643 252.579 455.67 216.202 438.326 181.574C430.276 164.714 416.419 149.567 397.821 144.749C400.472 147.674 398.406 152.048 396.5 154.836L396.384 155.004C387.257 168.506 367.16 171.722 352.088 168.785C344.787 167.535 337.941 162.815 337.358 154.923C336.906 149.637 339.92 144.424 344.476 141.82L343.921 141.88C339.487 142.372 335.18 143.082 331.777 146.25C319.233 157.838 313.413 174.341 306.003 189.281L305.708 189.825C302.535 195.701 299.468 202.047 294.195 206.308L295.18 207.147C295.305 207.254 295.172 207.495 295.015 207.431C294.507 207.226 294.003 207.011 293.501 206.793C292.793 207.36 291.979 206.786 291.894 206.066C279.97 200.367 269.892 191.328 260.537 182.159C258.175 187.62 254.192 193.577 247.816 194.469C253.836 199.4 259.164 205.101 264.871 210.385ZM360.716 315.092C359.942 314.652 359.178 314.195 358.424 313.722C357.18 315.71 357.496 317.457 357.63 319.653C357.915 323.316 357.851 327.042 358.595 330.648C359.884 339.847 360.647 349.461 362.562 358.426C362.604 358.927 362.649 359.428 362.688 359.929C362.739 360.589 363.775 360.592 363.723 359.929C362.463 345.047 359.787 330.077 360.716 315.092ZM353.697 494.371C343.983 495.982 334.066 494.84 324.347 493.805L322.921 493.62C318.321 493.023 313.694 492.396 309.176 491.394C308.795 491.08 308.208 490.941 307.98 490.475L307.701 490.495C307.465 490.362 307.225 490.237 306.981 490.119C306.271 489.992 305.693 489.838 304.96 489.637C303.965 489.974 303.862 490.848 304.536 491.466C304.469 491.782 304.847 491.962 305.094 492.102C305.133 492.181 305.195 492.257 305.287 492.321C305.73 492.601 306.178 492.935 306.685 493.073C307.925 494.36 310.588 494.849 312.054 495.11L312.199 495.136C324.387 497.314 336.856 497.899 349.198 496.916C351.326 496.745 353.452 496.528 355.57 496.264L356.148 496.19C357.977 495.954 359.995 495.863 361.401 494.527C362.102 493.862 363.505 494.281 363.466 495.338L363.464 495.379C363.341 497.115 367.406 495.679 368.211 495.454L368.234 495.448C370.485 494.838 372.721 494.165 374.979 493.584L375.532 493.477C377.493 493.088 377.646 492.891 377.667 490.465L377.74 489.805C377.839 488.926 377.945 488.05 378.087 487.177L378.142 486.85C378.206 486.483 378.831 484.213 377.79 484.514C377.659 484.552 377.531 484.447 377.524 484.32C370.212 488.97 362.299 492.861 353.697 494.371ZM392.32 500.225L391.699 499.853C390.66 499.225 389.616 498.544 388.878 497.589C387.662 497.635 387.162 496.491 387.208 495.471C386.187 498.788 387.453 501.442 390.446 503.121C400.871 508.647 414.208 507.834 424.586 502.579C425.582 502.066 426.555 501.509 427.499 500.908L427.712 500.773C428.066 500.546 428.409 500.303 428.597 499.914C429.051 498.585 429.045 497.275 429.094 495.793C428.308 496.852 427.003 497.585 425.918 498.314C423.849 499.697 421.607 500.795 419.283 501.675C410.674 504.868 400.449 504.673 392.32 500.225ZM423.849 227.855C423.018 220.648 421.593 213.541 420.213 206.425C419.651 214.072 415.677 221.519 417.444 229.255C419.172 235.482 422.874 241.007 424.456 247.288C424.764 240.801 424.575 234.31 423.849 227.855ZM413.605 290.387C414.54 290.558 415.501 290.554 416.447 290.487C420.281 290.023 420.887 292.342 420.874 295.583C420.99 297.679 421.119 299.775 421.228 301.871L421.292 303.129C421.371 304.805 421.582 306.679 421.371 308.431C422.066 310.021 422.441 311.68 422.552 313.419C422.871 313.332 423.213 313.374 423.458 313.541C424.864 311.037 425.201 307.979 425.491 305.16C425.632 303.773 427.672 303.71 427.703 305.16C427.743 307.132 427.772 309.106 427.807 311.078L427.86 314.121L427.86 314.167C427.851 314.6 427.655 315.695 428.189 315.652L428.219 315.649C429.212 315.575 429.258 312.046 429.472 311.166L430.301 305.263C430.487 303.942 432.387 304.374 432.518 305.525L432.522 305.563C432.754 308.26 432.99 310.958 433.19 313.658C433.253 314.125 433.261 314.97 433.771 315.174C434.222 314.769 434.307 314.089 434.403 313.524C435.252 305.735 436.845 298.046 437.827 290.275C437.19 290.184 436.607 289.788 436.42 289.178C431.309 288.135 425.946 285.26 423.378 280.59C422.866 281.042 422.465 281.632 421.968 282.096C421.183 282.831 420.32 283.494 419.495 284.181C417.183 286.137 414.862 287.984 412.597 290C412.928 290.108 413.23 290.32 413.605 290.387ZM357.998 130.943C357.972 130.841 357.831 130.87 357.824 130.967C357.682 132.93 357.211 135.002 356.493 136.928C356.236 136.969 355.989 137.114 355.81 137.395C355.568 137.772 354.412 138.035 353.809 138.213L353.723 138.239C351.22 139.011 348.607 139.323 346.01 139.598C333.798 140.273 329.354 144.096 322.465 153.757C314.287 164.641 309.698 177.558 303.534 189.57C302.017 192.491 300.379 195.344 298.579 198.101L298.407 198.363C296.799 200.807 295.02 203.284 292.564 204.934C286.621 199.955 280.265 195.51 274.385 190.454L273.835 189.978C269.424 186.169 265.211 182.131 261.202 177.901C260.729 177.402 259.842 177.271 259.186 177.564C258.93 173.756 257.854 170.021 256.861 166.342C255.82 161.604 254.01 158.401 248.55 159.574C246.352 154.045 243.409 148.649 238.954 144.613L238.668 144.356C237.719 143.495 236.474 142.261 235.142 142.372C233.932 142.472 233.311 143.566 233.262 144.679C233.207 145.998 233.783 147.342 234.196 148.579L234.231 148.685C234.762 150.309 235.335 151.92 235.941 153.518C236.524 155.056 237.149 156.578 237.803 158.087C238.47 159.349 238.96 161.439 240.174 162.202C240.801 162.574 241.447 162.074 241.514 161.434C241.609 160.595 241.125 159.858 240.77 159.127C240.442 158.456 240.121 157.781 239.809 157.102C238.553 154.37 237.427 151.581 236.459 148.736C236.171 147.779 234.994 145.289 235.403 144.429C235.811 144.432 236.653 145.295 236.951 145.552C241.631 149.425 244.673 154.777 248.153 159.66C245.969 160.283 243.599 160.576 241.785 162.04C238.054 165.292 241.05 171.732 246.051 170.533C244.655 173.496 243.455 178.283 245.928 180.96C246.672 181.656 248.117 181.434 248.343 180.325C248.585 179.147 248.295 178.137 248.029 176.995C247.547 174.671 247.255 172.29 247.584 169.923L247.687 169.862C248.535 169.348 249.068 168.771 249.042 167.708C249.152 166.94 248.333 165.905 247.509 166.534C247.242 166.737 246.916 166.752 246.634 166.957C246.157 167.411 245.564 167.767 244.888 167.762L244.822 167.76C243.952 167.753 243.31 167.229 243.045 166.417C242.316 164.186 244.838 163.437 246.477 163.008L246.901 162.878C251.376 161.511 252.998 161.489 254.123 166.742C255.341 170.661 256.414 174.696 258.474 178.278L258.217 178.89C256.147 183.816 253.548 189.487 247.98 190.998C247.783 189.352 246.001 189.293 244.712 189.334C243.047 189.245 241.376 188.401 240.2 187.188C239.173 186.155 238.656 184.715 237.52 183.793C238.034 182.626 236.873 181.337 235.66 182.009C234.842 182.46 234.348 183.104 233.361 183.235C232.486 183.353 231.68 183.048 231.015 182.488C229.281 181.024 230.106 178.873 229.681 176.956C230.241 177.922 231.169 178.662 232.163 179.174C238.801 182.966 238.734 175.531 235.066 176.752C231.081 175.847 231.148 174.408 232.638 171.031L232.664 170.951C232.906 170.242 233.448 168.989 232.945 168.225C232.917 168.187 232.867 168.175 232.831 168.21C232.375 168.657 232.196 169.408 231.811 169.935L231.353 170.482C229.96 172.159 228.502 174.151 229.407 176.389C229.31 176.368 229.205 176.41 229.172 176.527C228.744 178.082 227.893 179.61 228.069 181.274C228.438 184.92 232.395 186.922 235.672 185.402C236.302 190.089 240.93 193.463 245.568 193.254C245.714 193.897 246.191 194.462 246.928 194.52C253.753 205.442 280.585 233.54 293.743 232.366C295.001 232.936 296.603 232.65 297.935 232.478C308.154 231.147 316.694 223.682 321.458 214.834C323.21 243.816 313.314 243.464 306.692 267.474C306.029 267.889 305.643 268.796 306.157 269.562C305.873 271.015 305.291 272.503 305.515 273.994C305.625 274.419 305.848 274.806 306.05 275.196C306.466 275.99 307.561 275.894 308.074 275.277C307.204 278.421 307.575 281.722 307.798 284.927C307.935 286.81 307.924 288.666 307.926 290.551C308.186 319.235 322.215 345.098 329.427 372.311C331.467 379.94 333.034 387.713 333.65 395.592C334.304 403.975 333.848 412.404 334.635 420.777C335.547 430.473 338.14 439.898 341.199 449.115C341.016 449.862 340.636 450.712 340.871 451.355C345.24 452.091 349.457 453.428 353.701 454.67C353.867 454.718 353.97 454.821 354.023 454.944L354.993 455.265C355.622 455.475 355.352 456.473 354.718 456.262L353.657 455.91C350.031 454.712 346.362 453.567 342.591 453.03L342.475 452.982C341.721 452.681 340.834 452.46 340.436 453.29C340.235 453.71 340.394 454.134 340.683 454.467C340.926 454.748 341.235 454.921 341.448 455.239C341.686 455.659 341.888 456.1 342.124 456.526C342.122 458.631 342.815 460.716 342.546 462.816C342.344 463.688 341.637 464.524 342.086 465.457L341.881 465.587C340.691 466.35 339.554 467.188 338.772 468.367C338.601 468.626 338.472 469.158 338.277 469.34C338.073 469.53 337.693 469.552 337.443 469.642C336.176 470.027 335.378 471.169 335.488 472.496C332.52 473.349 333.542 476.359 330.479 478.453C327.335 480.729 323.077 480.979 319.363 481.569L313.034 482.577L312.666 482.622C308.661 483.115 303.436 484.044 302.63 488.717L302.566 488.793C301.598 489.947 300.667 492.138 301.862 493.391C302.833 494.252 304.16 494.656 305.336 495.158C306.968 496.335 309.319 496.883 311.108 497.215C326.582 500.077 342.522 500.408 358.1 498.188L358.36 498.15C359.449 497.988 360.573 497.767 361.567 497.301C362.957 499.638 365.634 499.344 367.887 498.681C369.656 498.244 371.425 497.813 373.194 497.382L373.36 497.339C376.092 496.639 379.967 496.426 380.629 493.097C380.971 491.383 380.948 489.477 380.931 487.735L380.935 487.164C380.937 485.697 380.822 483.708 379.159 483.398C381.469 479.124 380.965 473.869 378.814 469.632L378.699 469.424C377.116 466.524 376.127 464.102 376.653 460.677C377.707 459.685 378.199 458.26 378.589 456.86C379.408 453.913 380.124 450.934 380.73 447.934L379.79 446.007C377.034 440.35 374.308 434.669 372.249 428.718C372.06 428.172 372.949 427.786 373.196 428.32C375.799 433.963 378.983 439.326 381.408 445.054C383.015 448.049 384.945 450.866 387.108 453.488L387.204 453.621C388.043 454.771 388.747 455.153 390.126 455.627C390.347 455.72 390.572 455.722 390.782 455.661C392.098 457.443 393.696 458.855 394.387 460.982C395.142 463.335 395.43 465.922 395.578 468.381C395.658 471.586 394.321 474.611 393.481 477.654C392.198 481.754 390.768 485.809 389.186 489.804C388.342 490.146 387.575 490.67 386.868 491.317C386.278 491.26 385.658 491.527 385.437 492.245L385.346 492.544C384.567 495.125 383.906 498.105 384.917 500.689C387.713 506.952 396.697 508.513 402.842 509.263C411.943 510.126 421.489 507.954 429.065 502.775C430.135 502.026 430.865 501.173 431.043 499.845L431.061 499.68C431.306 497.459 431.363 494.824 429.819 493.102C428.499 481.838 426.338 470.577 423.224 459.666C423.249 459.358 423.268 459.049 423.283 458.739C425.021 456.932 425.701 454.388 425.896 451.945C425.919 450.918 424.879 450.704 424.072 450.578L423.775 450.576C421.147 450.557 418.435 450.686 416.09 451.666L416.205 451.67C416.324 451.676 416.448 451.69 416.538 451.752C415.363 452.128 414.082 452.295 412.958 452.789C412.127 452.83 411.401 453.225 410.559 453.296L410.425 453.304C410.275 453.317 410.161 453.273 410.079 453.199C407.815 453.602 405.565 454.145 403.305 454.476C402.653 454.572 402.372 453.577 403.03 453.48C406.053 453.036 409.063 452.222 412.107 451.844C412.78 451.583 413.43 451.249 414.105 450.98C414.144 450.89 414.218 450.81 414.338 450.754C415.079 450.407 415.847 450.122 416.634 449.883C418.65 449.259 420.767 448.996 422.867 448.872L422.718 447.372C420.302 422.866 418.54 397.702 408.519 374.879C410.648 369.965 413.544 365.285 415.406 360.231C416.18 358.21 416.649 356.15 417.262 354.089C417.66 353.101 417.989 352.101 418.149 351.042C420.602 339.828 421.989 328.422 423.437 317.047C424.411 316.243 425.055 315.083 425.62 314.016L425.623 314.178C425.656 315.934 425.904 317.957 428.117 317.905C429.904 317.862 430.685 316.531 431.086 315.058C431.864 318.137 435.321 318.306 436.334 315.273C436.786 314.051 436.767 312.655 436.902 311.372C437.624 304.33 439.131 297.293 438.698 290.201C439.154 290.046 439.551 289.698 439.744 289.118C448.374 263.001 456.054 235.051 450.452 207.493C444.85 180.492 429.68 150.266 401.013 142.61C395.209 141.145 389.314 140.648 383.364 140.269C382.506 138.61 381.951 136.722 381.839 134.844C381.804 134.301 381.83 133.764 381.832 133.221C381.834 132.72 381.62 132.123 381.72 131.654C381.744 131.54 381.588 131.502 381.547 131.608C381.421 131.937 381.164 132.102 380.99 132.379C380.556 133.163 380.441 134.094 380.327 134.97C379.897 138.389 380.875 141.907 382.946 144.653L383.017 144.747C383.66 145.605 384.881 147.159 386.145 146.415C387.246 145.765 386.541 144.441 385.884 143.732L385.834 143.68C384.945 142.756 384.2 141.769 383.594 140.693C386.286 141.41 388.956 142.199 391.64 142.946L391.767 143.016C393.869 144.159 396.992 145.383 396.716 148.218C391.127 165.068 366.404 169.397 351.124 165.374L350.88 165.308C347.957 164.503 345.029 163.208 343.04 160.849L342.957 160.75C339.425 156.572 339.696 149.669 344.119 146.239C346.745 144.089 350.375 142.948 353.652 142.204C352.699 143.785 350.591 144.901 350.207 146.775C350.109 147.417 350.465 148.029 351.174 148.042C352.976 148.077 354.305 146.155 355.25 144.863C357.224 142.16 358.344 138.893 358.583 135.566C358.702 133.947 358.403 132.488 357.998 130.943ZM238.781 161.341C238.876 161.275 238.823 161.081 238.694 161.134C233.796 163.162 231.797 170.426 235.484 174.426C236.708 175.715 238.542 176.461 240.213 175.785C242.266 175.438 243.466 173.366 243.729 171.458C243.746 171.369 243.647 171.328 243.59 171.384L243.58 171.396C242.804 172.352 241.581 172.991 240.467 173.48C240.154 173.311 239.813 173.177 239.469 173.098C238.981 172.987 238.48 173.37 238.527 173.868C236.221 173.446 235.297 170.705 235.227 168.625L235.225 168.563C235.132 165.685 236.435 163.023 238.781 161.341Z" fill="#222222"/>
<path fill-rule="evenodd" clip-rule="evenodd" d="M350.317 76.0151C362.293 66.2801 381.486 63.1192 394.306 72.9406C404.267 82.1579 408.389 108.35 406.626 121.512C406.136 129.954 399.687 139.522 390.221 136.852C388.613 136.694 387.052 136.077 385.43 135.948C383.489 135.725 381.534 135.721 379.597 135.995C375.377 136.592 371.636 138.833 367.54 139.88C359.939 141.824 351.459 140.517 344.917 136.138C323.297 121.923 333.09 89.7736 350.317 76.0151V76.0151Z" fill="#F0F0F0"/>
<path fill-rule="evenodd" clip-rule="evenodd" d="M351.912 140.114C351.69 140.038 351.468 139.958 351.247 139.876C351.233 139.927 351.209 139.976 351.182 140.023C351.151 140.1 351.12 140.174 351.085 140.249C351.362 140.251 351.639 140.202 351.912 140.114M352.356 45.7766C352.454 45.5564 352.567 45.3452 352.695 45.141C352.385 45.2414 352.075 45.3798 351.795 45.5583C351.984 45.622 352.17 45.6948 352.356 45.7766M399.662 74.5796C399.675 74.5774 399.688 74.5756 399.7 74.5734C399.538 74.1409 399.249 73.7326 398.929 73.4378C398.872 73.3848 398.81 73.3358 398.749 73.2851C399.089 73.6893 399.396 74.1203 399.662 74.5796M313.104 119.807C313.264 118.288 313.468 116.775 313.732 115.271C313.985 113.83 314.198 112.29 314.932 111.011C315.661 109.738 316.391 108.501 317.258 107.382C317.134 106.81 316.97 106.273 316.828 105.839C316.009 103.344 315.202 100.175 316.904 97.8572C317.3 97.3199 317.782 96.9084 318.334 96.5369C318.569 96.3784 318.958 96.2345 319.139 96.016C319.266 95.8612 319.222 95.945 319.228 95.8685C319.259 95.4569 318.294 94.5883 318.068 94.2623C317.645 93.6593 317.331 92.9802 317.09 92.2864C316.14 89.5401 316.786 86.5152 317.358 83.7634C317.66 82.3048 317.993 80.8425 318.103 79.3528C318.205 77.9542 318.013 76.5883 317.9 75.197C317.791 73.8237 317.82 72.407 318.409 71.1357C318.696 70.5165 319.131 69.9702 319.661 69.5441C320.178 69.1272 320.823 68.885 321.327 68.4698C321.83 68.0562 321.686 67.4973 321.555 66.9255C321.375 66.1497 321.147 65.3794 321.125 64.5781C321.085 63.1813 321.655 61.8207 322.546 60.7646C323.463 59.6738 324.775 58.9361 326.191 58.7703C326.84 58.6939 327.477 58.8233 328.121 58.7778C328.759 58.7341 328.897 58.4154 329.017 57.8326C329.294 56.4978 329.181 55.1793 329.838 53.9336C330.421 52.8264 331.457 52.0759 332.603 51.6336C334.702 50.8213 337.144 50.9889 339.359 51.4677C340.666 47.6216 344.747 45.0994 348.762 45.0684C349.388 44.0049 350.45 43.2109 351.661 42.7445C353.664 41.9705 355.785 42.4224 357.872 42.4224H357.881C358.091 42.4094 358.3 42.4041 358.509 42.406C358.706 42.3949 358.903 42.3785 359.099 42.3568C361.474 42.0762 363.823 41.1037 366.176 42.0563C367.225 42.4806 368.059 43.1344 368.586 43.9685C369.382 44.185 370.167 44.4329 370.937 44.7206C374.275 44.8078 377.582 46.598 379.27 49.4992C381.646 49.2297 384.225 49.6868 385.796 51.6281C386.206 52.1333 386.523 52.7268 386.733 53.3569C388.335 53.8752 389.818 54.7987 390.789 56.1896C391.674 57.459 391.844 59.1001 391.245 60.4627C392.676 61.4991 393.794 62.9828 394.332 64.7347C394.659 65.7991 394.708 66.8989 394.498 67.9466C395.962 68.2715 397.363 68.8737 398.604 69.7775C399.905 70.7243 401.529 72.2313 401.615 73.9657C401.621 74.093 401.616 74.2203 401.606 74.3473C404.47 74.146 407.389 74.6312 409.325 76.9271C410.778 78.6497 411.41 80.868 411.022 82.8876C414.429 83.5796 417.65 85.3607 419.897 87.994C421.531 89.908 422.982 92.341 422.895 94.9468C422.867 95.7319 422.683 96.5223 422.365 97.2526V97.2542C422.501 97.5112 422.642 97.7971 422.776 98.1012C424.887 99.5779 426.42 101.893 427.283 104.444C427.98 106.511 428.419 109.195 427.675 111.299C427.562 111.619 427.418 111.922 427.25 112.202C427.391 112.351 427.523 112.501 427.653 112.652C429.075 114.314 430.515 116.409 430.417 118.698C430.377 119.62 430.035 120.546 429.475 121.308C431.442 123.302 433.026 125.819 432.87 128.629C432.735 131.074 431.393 133.558 429.29 134.733C429.641 136.618 429.171 138.606 427.704 140.078C426.972 140.814 426.109 141.298 425.194 141.557C424.99 143.777 423.02 145.563 420.928 146.077C420.538 146.173 420.149 146.231 419.761 146.259C417.878 147.182 415.633 147.076 413.712 146.229C413.145 146.949 412.408 147.535 411.548 147.956C411.201 148.127 410.833 148.269 410.448 148.384C407.735 149.187 404.953 148.098 402.58 146.827C402.504 146.787 402.363 146.736 402.24 146.679C401.912 147.046 401.315 147.408 401.003 147.586C399.947 148.193 398.656 148.475 397.443 148.395C396.021 148.3 394.766 147.83 393.605 147.162C393.435 147.191 393.264 147.208 393.093 147.217C392 147.275 391.026 146.929 390.15 146.383C389.571 146.459 388.978 146.452 388.377 146.346C387.053 146.683 385.763 146.148 384.728 145.297C384.268 144.92 383.881 144.478 383.465 144.055C383.034 143.616 382.706 143.514 382.202 143.219C381.009 142.522 380.865 140.754 381.382 139.475C381.284 139.251 381.228 139.002 381.228 138.725C381.231 136.31 382.344 134.096 383.709 132.163C384.32 131.302 384.982 130.459 385.709 129.694C386.294 129.08 387.115 128.084 387.98 127.834C388.032 127.796 388.087 127.758 388.142 127.722C387.974 127.135 387.876 126.538 387.918 125.928C387.962 125.301 388.164 124.708 388.488 124.201C387.401 122.094 386.942 119.783 387.16 117.372C386.275 116.117 385.605 114.732 385.259 113.213C385.046 112.273 384.924 111.284 384.941 110.321C384.948 109.858 385.117 109.274 385.121 108.795C385.095 108.946 384.899 108.381 384.822 108.241C383.945 106.611 382.817 105.34 382.63 103.419C382.521 102.295 382.786 101.053 383.46 100.132C383.029 98.4308 383.034 96.6041 383.713 94.9816C383.895 94.5482 384.105 94.1239 384.345 93.7214C384.234 93.3827 384.132 93.0403 384.001 92.7324C383.95 92.6103 383.899 92.4867 383.848 92.3629C383.355 91.9274 382.895 91.4523 382.509 90.9859C381.654 89.9535 381 88.7698 380.918 87.4056C380.878 86.7227 381.038 86.0689 381.237 85.4208C381.324 85.1276 381.377 84.8016 381.481 84.5157C381.539 84.357 381.679 84.1951 381.728 84.0458C381.739 84.013 381.748 83.9857 381.756 83.9639C381.748 83.942 381.743 83.8965 381.743 83.8107C381.741 83.1569 381.656 82.5177 381.652 81.8878C381.053 82.4924 380.332 82.9439 379.512 83.2081C377.861 83.738 376.138 83.4977 374.676 82.68C373.102 83.7581 371.334 84.734 369.481 85.1257C368.379 85.3587 367.275 85.2623 366.17 85.4062C365.072 85.5501 364.01 86.029 362.976 86.4023C360.674 87.2346 358.378 88.0885 356.069 88.8991C354.205 89.5529 352.187 90.0719 350.235 89.704C349.687 90.5488 348.975 91.2629 348.063 91.7874C347.409 92.1607 346.692 92.4137 345.95 92.5395C345.295 92.6506 344.526 92.6069 343.995 93.0567C343.476 93.4938 343.152 94.1455 342.685 94.6374C342.166 95.1874 341.525 95.6645 340.854 96.0069C340.315 96.2819 339.764 96.4802 339.206 96.6097C339.255 97.8535 339.302 99.0955 339.317 100.341C339.344 103.047 339.333 105.753 339.369 108.46C339.406 111.157 339.491 113.854 339.633 116.547C339.768 119.075 339.958 121.612 340.56 124.078C342.56 132.26 350.049 138.118 358.433 138.417C360.922 138.506 363.386 138.157 365.766 137.424C368.231 136.665 370.433 135.102 372.961 134.622C373.622 134.498 374.244 135.163 373.866 135.802C373.214 136.9 372.422 137.57 371.338 138.231C370.203 138.922 368.94 139.433 367.693 139.881C365.398 140.704 362.971 141.182 360.536 141.314C358.679 141.416 356.814 141.289 354.995 140.939C354.867 141.331 354.642 141.711 354.471 142.074C354.445 142.127 354.359 142.09 354.376 142.036C354.403 141.945 354.421 141.864 354.429 141.799C353.817 142.597 352.872 143.148 351.901 143.416C351.217 143.605 350.49 143.664 349.785 143.584C349.558 143.558 349.341 143.52 349.126 143.473C348.409 144.101 347.491 144.52 346.57 144.729C346.728 145.691 346.253 146.74 345.151 147.013C344.688 147.127 344.244 147.129 343.8 147.087C343.441 147.255 343.055 147.386 342.645 147.475C342.112 147.592 341.475 147.442 341.072 147.056C340.852 147.211 340.646 147.319 340.442 147.564C339.602 148.577 337.793 147.77 337.712 146.599C337.447 146.599 337.179 146.603 336.911 146.612C336.847 146.641 336.784 146.67 336.718 146.701C335.547 147.246 334.335 147.721 333.04 147.293C332.801 147.215 332.583 147.115 332.384 146.998C331.472 147.08 330.572 147.082 329.647 146.783C329.101 146.606 328.588 146.326 328.16 145.958C326.732 146.377 325.226 146.567 323.806 146.047C322.742 145.66 321.886 145.048 321.284 144.241C320.362 144.274 319.426 144.052 318.583 143.613C317.141 142.866 316.131 141.447 315.426 140.025C313.874 136.887 312.956 133.516 312.596 130.04C312.241 126.616 312.747 123.211 313.104 119.807" fill="#222222"/>
<path fill-rule="evenodd" clip-rule="evenodd" d="M357.087 127.044C358.313 126.545 359.408 125.712 360.208 124.648C360.486 124.278 360.558 123.887 360.5 123.53C360.434 123.128 360.196 122.764 359.871 122.52C359.545 122.275 359.138 122.154 358.744 122.215C358.402 122.269 358.061 122.456 357.791 122.844L357.735 122.922C357.259 123.564 356.639 124.091 355.933 124.431C355.252 124.758 354.49 124.911 353.702 124.822C352.202 124.653 351.167 123.843 350.068 122.743C349.932 122.604 349.795 122.461 349.658 122.315C349.572 122.183 349.452 122.099 349.318 122.054C349.17 122.005 349.003 122.008 348.85 122.061C348.702 122.112 348.569 122.21 348.481 122.34C348.396 122.464 348.349 122.616 348.364 122.792C348.465 123.931 349.062 124.949 349.91 125.748C350.852 126.635 352.101 127.248 353.276 127.464C354.572 127.701 355.892 127.531 357.087 127.044V127.044ZM352.666 109.46C351.288 110.296 349.188 112.245 350.67 114.317C352.415 116.144 354.928 114.049 356.166 113.102C357.313 112.368 358.603 114.256 357.538 115.114C348.592 121.723 344.962 109.678 351.969 108.477C352.74 108.345 353.027 109.201 352.666 109.46ZM368.697 101.771C368.544 99.8848 365.666 99.4565 365.38 101.323C365.123 102.995 365.425 104.53 366.18 106.036C366.901 107.473 368.713 106.803 368.85 105.493C369.034 103.738 368.791 102.944 368.697 101.771ZM346.787 100.936C346.386 100.411 345.807 100.053 345.112 100.256C342.944 100.888 343.583 103.961 344.345 105.457C344.758 106.269 346.096 106.475 346.701 105.76C347.686 104.593 348.158 102.264 346.905 101.116C346.871 101.056 346.834 100.996 346.787 100.936ZM366.21 93.5181L365.868 93.4583C364.808 93.2754 363.49 93.0996 362.74 93.9499C362.343 94.4008 362.206 95.2389 362.74 95.6705C363.68 96.4299 364.72 96.1356 365.847 96.1999C366.775 96.2531 367.667 96.4064 368.562 96.6616C370.524 97.2212 372.122 98.2428 373.798 99.3646C374.018 99.5118 374.242 99.2312 374.138 99.0259C373.17 97.1351 371.296 95.5818 369.418 94.635C368.416 94.1297 367.319 93.7104 366.21 93.5181ZM348.764 92.6712L348.502 92.7247C345.649 93.32 341.941 94.509 340.59 97.3062C340.539 97.7017 340.593 97.7865 340.637 97.8419L340.652 97.8603C340.688 97.9076 340.717 97.9728 340.889 98.0266C340.937 98.0153 340.985 98.0033 341.034 97.9905C341.653 97.8285 342.143 97.6054 342.618 97.3738L343.132 97.1209C343.729 96.8289 344.331 96.5475 344.969 96.3397C346.331 95.8965 347.731 95.5842 349.154 95.4175C349.462 95.3814 349.759 95.2775 349.993 95.0996C350.215 94.9307 350.385 94.6968 350.462 94.386C350.563 93.9837 350.534 93.6791 350.318 93.3162C350.155 93.0436 349.922 92.8547 349.655 92.7462C349.383 92.6356 349.073 92.6095 348.764 92.6712Z" fill="#222222"/>
<path fill-rule="evenodd" clip-rule="evenodd" d="M336.707 110.318C338.382 112.407 344.94 114.725 348.43 112.208C351.92 109.692 353.299 107.938 353.766 104.793C353.816 104.458 354.423 104.235 354.68 104.473C356.118 105.806 357.049 107.504 357.971 109.206C359.011 111.126 360.036 113.057 361.926 114.357C365.275 116.148 371.332 116.403 373.121 115.613C376.549 114.1 379.261 110.863 379.878 106.408C379.878 106.408 380.505 104.433 381.055 104.017C381.575 103.623 384.45 103.272 384.765 103.213C390.44 102.162 397.617 101.493 402.672 105.19C403.356 105.602 405.697 107.152 405.732 106.771C405.757 105.278 404.061 101.899 400.205 100.291C395.436 98.302 388.348 98.1857 384.241 98.6245C384.035 98.6466 383.331 98.4739 383.281 98.4524C377.06 95.7643 369.901 96.4782 363.244 97.6081C362.291 97.7928 353.751 99.903 350.354 98.6245C344.738 96.3364 338.751 94.6788 332.686 95.331C332.635 95.3364 331.87 99.9741 332.466 100.291C332.941 100.542 333.748 101.187 334.035 101.541C334.292 101.856 334.453 102.249 334.439 102.792C334.324 105.937 335.223 108.468 336.707 110.318ZM359.798 107.512C359.086 106.484 358.861 104.175 359.159 102.49C359.31 101.637 359.603 100.958 359.971 100.62C360.215 100.395 360.494 100.289 360.799 100.305C360.965 100.314 361.146 100.361 361.337 100.464C363.927 99.0658 367.065 98.5623 370.039 98.7071C372.407 98.7067 374.096 99.2644 375.242 100.133C376.62 101.177 377.241 102.679 377.277 104.308C377.32 106.24 376.524 108.354 375.219 110.027C373.97 111.628 372.262 112.815 370.408 113.089C368.304 113.506 366.16 113.103 364.296 112.116C362.384 111.104 360.768 109.48 359.798 107.512ZM339.035 108.602C337.835 107.187 337.037 105.345 336.916 103.521C336.805 101.861 337.251 100.216 338.482 98.8574C339.599 97.9009 341.572 97.8851 343.648 98.4177C346.332 99.1064 349.108 100.646 350.034 101.64C350.252 101.754 350.454 101.952 350.631 102.379L350.632 102.53C350.912 103.821 350.746 105.131 350.261 106.339C349.734 107.651 348.83 108.842 347.729 109.751C346.265 110.955 344.737 111.323 343.306 111.129C341.686 110.909 340.18 109.952 339.035 108.602Z" fill="white"/>
<path fill-rule="evenodd" clip-rule="evenodd" d="M350.547 98.1136C344.86 95.7964 338.781 94.1263 332.627 94.7881C332.118 94.5948 331.486 94.7576 331.261 95.4759C329.069 102.14 333.957 100.287 333.891 102.778C333.379 116.747 352.192 119.132 354.307 104.873L354.346 104.896V104.896C357.389 107.73 358.03 112.342 361.616 114.807C368.848 120.086 379.1 115.904 380.417 106.507L380.445 106.379C380.887 104.462 381.416 103.986 383.596 103.996L383.94 103.927C389.604 102.814 397.147 101.813 402.364 105.643C403.498 106.301 403.552 107.994 404.51 108.73C405.561 108.933 406.208 107.673 406.279 106.8C406.445 98.1019 390.849 97.4762 383.864 98.2227C383.73 98.0848 383.446 98.1019 383.35 98.2737C377.032 95.5442 369.916 95.9219 363.152 97.0697C358.962 97.8792 354.824 99.7231 350.547 98.1136ZM333.193 96.3938C336.606 96.2235 339.762 96.4098 343.112 97.2284C344.877 97.6535 346.232 98.1909 347.922 98.8372C358.461 103.497 359.677 95.2139 383.302 98.461C382.997 99.7674 382.94 101.061 382.924 102.288C378.1 102.094 379.236 106.691 377.429 109.92L377.373 110.017C374.739 114.728 368.524 116.926 363.51 113.801C359.327 111.368 358.919 105.197 354.755 102.748C351.145 102.606 352.587 107.469 350.622 109.467C347.857 113.15 341.979 113.665 338.512 110.201C336.885 108.534 336.02 106.418 335.972 104.144C335.882 102.692 336.131 101.216 335.031 100.194C334.26 99.4123 332.889 99.6733 332.732 98.4912C332.632 97.7922 332.923 97.0341 333.193 96.3938ZM370.281 98.2977C366.891 98.131 363.304 98.7185 360.393 100.378C358.239 98.6666 357.711 105.467 359.141 107.434C361.201 111.641 365.998 114.407 370.617 113.489C377.822 112.447 382.843 98.2851 370.281 98.2977ZM360.6 100.834L360.784 100.807C363.907 100.332 372.41 98.1286 375.689 101.606C378.872 107.373 370.798 117.06 362.395 109.344C360.057 106.968 359.15 104.087 360.6 100.834ZM350.704 101.571C349.087 99.66 340.845 95.7894 337.972 98.2732C332.729 104.137 341.044 115.999 348.009 110.22C350.328 108.288 351.855 105.211 351.187 102.23L351.186 102.105C351.184 102.06 351.176 102.07 351.127 102.014C351.041 101.789 350.887 101.645 350.704 101.571ZM338.046 105.125C336.278 95.5539 343.668 99.1925 349.737 101.747C349.412 102.044 349.413 102.45 349.507 102.783C350.147 109.885 341.498 113.909 338.046 105.125ZM383.987 98.6877C386.518 99.5433 403.263 98.0132 404.81 105.846C403.177 103.206 399.795 102.159 396.755 101.59C392.62 100.817 388.507 101.265 384.43 102.078L384.346 101.236C384.255 100.343 384.16 99.5075 383.987 98.6877Z" fill="#222222"/>
</svg>
